<?xml version="1.0" encoding="utf-8"?>
<!-- Generator: Adobe Illustrator 16.0.0, SVG Export Plug-In . SVG Version: 6.00 Build 0)  -->
<!DOCTYPE svg PUBLIC "-//W3C//DTD SVG 1.1//EN" "http://www.w3.org/Graphics/SVG/1.1/DTD/svg11.dtd">
<svg version="1.1" id="Layer_1" xmlns="http://www.w3.org/2000/svg" xmlns:xlink="http://www.w3.org/1999/xlink" x="0px" y="0px"
	 width="91px" height="86.5px" viewBox="0 0 91 86.5" enable-background="new 0 0 91 86.5" xml:space="preserve">
<text transform="matrix(1 0 0 1 12.2837 38.8706)" fill="#FFFFFF" font-family="'KannadaSangamMN'" font-size="30">A</text>
<path fill="none" stroke="#FFFFFF" stroke-width="2" stroke-miterlimit="10" d="M73.719,57.938C99.039,57.291,77-6.75,24.208,12.375
	C13.896,16.729,8.625,24.291,7.25,33.625c-0.792,11.333,7.583,16.959,16.125,15.25c-0.5,2.584,0.625,5.75,3,6.75
	c2.25,7.375,10.609,6.333,16.5,5.031c0,0,3.312,4,6.626,4.642c2.905,2.327,7.749,9.327,7.749,9.327l3.625-2.25
	c0,0-3.845-4.737-3.344-6.242C63.688,66.792,73.656,64.312,73.719,57.938z"/>
<text transform="matrix(1 0 0 1 30.2007 45.5)" fill="#FFFFFF" font-family="'KannadaSangamMN'" font-size="30">A</text>
<text transform="matrix(1 0 0 1 50.7007 51.25)" fill="#FFFFFF" font-family="'KannadaSangamMN'" font-size="30">I</text>
<text transform="matrix(1 0 0 1 57.1177 56.833)" fill="#FFFFFF" font-family="'KannadaSangamMN'" font-size="30">S</text>
<line fill="none" stroke="#FFFFFF" stroke-width="0.5" stroke-miterlimit="10" x1="45.706" y1="8.881" x2="45.706" y2="14.251"/>
<circle fill="none" stroke="#FFFFFF" stroke-width="0.5" stroke-miterlimit="10" cx="45.706" cy="14.748" r="0.626"/>
<polyline fill="none" stroke="#FFFFFF" stroke-width="0.5" stroke-miterlimit="10" points="48.078,9.375 48.078,18.641 
	50.828,21.391 "/>
<circle fill="#FFFFFF" stroke="#FFFFFF" stroke-width="0.5" stroke-miterlimit="10" cx="51.316" cy="21.882" r="0.616"/>
<polyline fill="none" stroke="#FFFFFF" stroke-width="0.5" stroke-miterlimit="10" points="52.766,10.656 52.766,13.359 
	50.046,16.079 "/>
<circle fill="none" stroke="#FFFFFF" stroke-width="0.5" stroke-miterlimit="10" cx="49.675" cy="16.31" r="0.626"/>
<line fill="none" stroke="#FFFFFF" stroke-width="0.5" stroke-miterlimit="10" x1="50.301" y1="10.078" x2="50.301" y2="11.75"/>
<circle fill="#FFFFFF" stroke="#FFFFFF" stroke-width="0.5" stroke-miterlimit="10" cx="50.301" cy="12.182" r="0.616"/>
<line fill="none" stroke="#FFFFFF" stroke-width="0.5" stroke-miterlimit="10" x1="54.333" y1="11.067" x2="54.333" y2="18.608"/>
<circle fill="none" stroke="#FFFFFF" stroke-width="0.5" stroke-miterlimit="10" cx="54.333" cy="19.056" r="0.626"/>
<polyline fill="none" stroke="#FFFFFF" stroke-width="0.5" stroke-miterlimit="10" points="56.738,11.659 56.738,21.727 
	59.968,24.956 "/>
<circle fill="#FFFFFF" stroke="#FFFFFF" stroke-width="0.5" stroke-miterlimit="10" cx="60.115" cy="24.956" r="0.615"/>
<polyline fill="none" stroke="#FFFFFF" stroke-width="0.5" stroke-miterlimit="10" points="59.301,12.061 59.301,15.819 
	60.635,17.307 "/>
<polyline fill="none" stroke="#FFFFFF" stroke-width="0.5" stroke-miterlimit="10" points="65.625,15.336 65.625,19.36 
	61.708,21.524 "/>
<circle fill="#FFFFFF" stroke="#FFFFFF" stroke-width="0.5" stroke-miterlimit="10" cx="61.25" cy="22.14" r="0.615"/>
<circle fill="none" stroke="#FFFFFF" stroke-width="0.5" stroke-miterlimit="10" cx="60.953" cy="17.562" r="0.626"/>
</svg>
