<?xml version="1.0" encoding="utf-8"?>
<!-- Generator: Adobe Illustrator 16.0.0, SVG Export Plug-In . SVG Version: 6.00 Build 0)  -->
<!DOCTYPE svg PUBLIC "-//W3C//DTD SVG 1.1//EN" "http://www.w3.org/Graphics/SVG/1.1/DTD/svg11.dtd">
<svg version="1.1" id="Layer_1" xmlns="http://www.w3.org/2000/svg" xmlns:xlink="http://www.w3.org/1999/xlink" x="0px" y="0px"
	 width="27.625px" height="27.625px" viewBox="0 0 27.625 27.625" enable-background="new 0 0 27.625 27.625" xml:space="preserve">
<symbol  id="Arrow_28" viewBox="-22.861 -15.876 45.721 31.752">
	<polygon fill="none" points="-22.861,-15.876 22.86,-15.876 22.86,15.876 -22.861,15.876 	"/>
	<g>
		<polygon fill="#E6E7E8" points="-20.013,2.316 5.824,2.01 -2.491,12.315 3.753,12.315 15.619,-0.002 3.753,-12.318 
			-2.491,-12.318 5.742,-2.164 -20.013,-2.328 		"/>
	</g>
</symbol>
<use xlink:href="#Arrow_28"  width="45.721" height="31.752" x="-22.861" y="-15.876" transform="matrix(-0.226 0.226 0.226 0.226 8.7563 18.8682)" overflow="visible"/>
<path fill="none" stroke="#000000" stroke-miterlimit="10" d="M60.318-72.546"/>
<path fill="none" stroke="#000000" stroke-miterlimit="10" d="M6.56,5.88"/>
<path fill="none" stroke="#000000" stroke-miterlimit="10" d="M28.066,22.676"/>
<path fill="none" stroke="#000000" stroke-miterlimit="10" d="M22.963,29.949"/>
<use xlink:href="#Arrow_28"  width="45.721" height="31.752" x="-22.861" y="-15.876" transform="matrix(0.226 0.226 0.226 -0.226 18.8682 18.8691)" overflow="visible" enable-background="new    "/>
<use xlink:href="#Arrow_28"  width="45.721" height="31.752" x="-22.861" y="-15.876" transform="matrix(0.226 -0.226 -0.226 -0.226 18.8691 8.7568)" overflow="visible" enable-background="new    "/>
<use xlink:href="#Arrow_28"  width="45.721" height="31.752" id="XMLID_1_" x="-22.861" y="-15.876" transform="matrix(-0.226 -0.226 -0.226 0.226 8.7568 8.7563)" overflow="visible" enable-background="new    "/>
</svg>
