<?xml version="1.0" encoding="utf-8"?>
<!-- Generator: Adobe Illustrator 16.0.0, SVG Export Plug-In . SVG Version: 6.00 Build 0)  -->
<!DOCTYPE svg PUBLIC "-//W3C//DTD SVG 1.1//EN" "http://www.w3.org/Graphics/SVG/1.1/DTD/svg11.dtd">
<svg version="1.1" id="Layer_1" xmlns="http://www.w3.org/2000/svg" xmlns:xlink="http://www.w3.org/1999/xlink" x="0px" y="0px"
	 width="1170px" height="594px" viewBox="0 0 1170 594" enable-background="new 0 0 1170 594" xml:space="preserve">
<g>
	<defs>
		<rect id="SVGID_1_" width="1170" height="594"/>
	</defs>
	<clipPath id="SVGID_2_">
		<use xlink:href="#SVGID_1_"  overflow="visible"/>
	</clipPath>
	<rect clip-path="url(#SVGID_2_)" fill="#70A4D8" width="583.06" height="594"/>
	<g clip-path="url(#SVGID_2_)">
		<defs>
			<rect id="SVGID_3_" width="1170" height="594"/>
		</defs>
		<clipPath id="SVGID_4_">
			<use xlink:href="#SVGID_3_"  overflow="visible"/>
		</clipPath>
		<path clip-path="url(#SVGID_4_)" fill="#EE3D96" d="M376.053,290.684c0,30.733-17.429,51.445-41.559,51.445
			c-17.429,0-34.184-14.028-34.184-34.071c0-14.697,9.38-27.396,24.129-30.734c-2.004-20.043-27.484-48.101-73.063-48.101
			c-22.79,0-43.564,7.346-58.314,22.716c-18.094,17.367-25.469,47.432-25.469,88.854v245.862h67.693v44.094H65.04v-44.094h52.954
			V340.126c0-51.445,12.734-94.872,38.869-120.925c23.464-23.388,54.969-36.081,94.513-36.081
			C319.744,183.12,376.053,230.558,376.053,290.684"/>
	</g>
	<g clip-path="url(#SVGID_2_)">
		<text transform="matrix(1 0 0 1 238.0142 472.999)"><tspan x="0" y="0" fill="#FFFFFF" font-family="'Archer-BoldItalic'" font-size="60">the co</tspan><tspan x="157.376" y="0" fill="#FFFFFF" font-family="'Archer-BoldItalic'" font-size="60">l</tspan><tspan x="175.256" y="0" fill="#FFFFFF" font-family="'Archer-BoldItalic'" font-size="60">orful </tspan></text>
	</g>
	<g clip-path="url(#SVGID_2_)">
		<text transform="matrix(1 0 0 1 238.0142 544.999)"><tspan x="0" y="0" fill="#FFFFFF" font-family="'Archer-BoldItalic'" font-size="60">s</tspan><tspan x="26.939" y="0" fill="#FFFFFF" font-family="'Archer-BoldItalic'" font-size="60">l</tspan><tspan x="44.819" y="0" fill="#FFFFFF" font-family="'Archer-BoldItalic'" font-size="60">ab-serif</tspan></text>
	</g>
	<g clip-path="url(#SVGID_2_)">
		<defs>
			<rect id="SVGID_5_" width="1170" height="594"/>
		</defs>
		<clipPath id="SVGID_6_">
			<use xlink:href="#SVGID_5_"  overflow="visible"/>
		</clipPath>
		<g clip-path="url(#SVGID_6_)">
			<text transform="matrix(1 0 0 1 367.5601 -23.2871)"><tspan x="0" y="0" fill="#D1ECF0" font-family="'Archer-MediumItalic'" font-size="43">co</tspan><tspan x="41.795" y="0" fill="#D1ECF0" font-family="'Archer-MediumItalic'" font-size="43">l</tspan><tspan x="53.664" y="0" fill="#D1ECF0" font-family="'Archer-MediumItalic'" font-size="43">orful</tspan></text>
		</g>
		<g opacity="0.9" clip-path="url(#SVGID_6_)">
			<g>
				<defs>
					<rect id="SVGID_7_" x="-322.9" y="-68.76" width="651.8" height="715.803"/>
				</defs>
				<clipPath id="SVGID_8_">
					<use xlink:href="#SVGID_7_"  overflow="visible"/>
				</clipPath>
				<polygon clip-path="url(#SVGID_8_)" fill="#FFF200" points="-134.228,591.803 -29.001,591.803 -29.001,354.23 -243.794,-13.52 
					-321.9,-13.52 -321.9,-67.76 -95.175,-67.76 -95.175,-13.52 -173.281,-13.52 3.542,301.074 182.536,-13.52 101.176,-13.52 
					101.176,-67.76 327.9,-67.76 327.9,-13.52 248.709,-13.52 33.916,353.145 33.916,591.803 139.143,591.803 139.143,646.043 
					-134.228,646.043 				"/>
			</g>
		</g>
	</g>
	<polygon clip-path="url(#SVGID_2_)" fill="#FFF32A" points="457.095,0 457.095,140.608 309.355,140.608 309.355,185.273 
		457.095,185.273 457.095,351.368 289.052,351.368 289.052,284.37 238.641,284.37 238.641,396.731 568.424,396.731 568.424,350.67 
		509.608,350.67 509.608,0 	"/>
	<polygon clip-path="url(#SVGID_2_)" fill="#EE3D96" points="460.351,0 460.351,144.016 312.613,144.016 312.613,188.681 
		460.351,188.681 460.351,354.776 292.308,354.776 292.308,287.778 241.897,287.778 241.897,400.139 571.68,400.139 571.68,354.077 
		512.864,354.077 512.864,0 	"/>
	<g clip-path="url(#SVGID_2_)">
		<defs>
			<rect id="SVGID_9_" width="1170" height="594"/>
		</defs>
		<clipPath id="SVGID_10_">
			<use xlink:href="#SVGID_9_"  overflow="visible"/>
		</clipPath>
		<path clip-path="url(#SVGID_10_)" fill="#0073BD" d="M380.926,294.865c0,30.733-17.429,51.445-41.559,51.445
			c-17.429,0-34.184-14.028-34.184-34.071c0-14.697,9.38-27.396,24.129-30.734c-2.004-20.043-27.484-48.101-73.063-48.101
			c-22.79,0-43.564,7.346-58.314,22.716c-18.094,17.367-25.469,47.432-25.469,88.855v245.862h67.693v44.094H69.913v-44.094h52.954
			V344.307c0-51.445,12.734-94.872,38.869-120.925c23.464-23.388,54.969-36.081,94.513-36.081
			C324.617,187.301,380.926,234.739,380.926,294.865"/>
		<line clip-path="url(#SVGID_10_)" fill="none" stroke="#0073BD" stroke-width="4" x1="174" y1="0" x2="-51.36" y2="393.48"/>
	</g>
	<g clip-path="url(#SVGID_2_)">
		<text transform="matrix(1 0 0 1 752.2715 316.6367)" fill="#0073BD" font-family="'Archer-Semibold'" font-size="60">ARCHER</text>
	</g>
	<g clip-path="url(#SVGID_2_)">
		<defs>
			<rect id="SVGID_11_" width="1170" height="594"/>
		</defs>
		<clipPath id="SVGID_12_">
			<use xlink:href="#SVGID_11_"  overflow="visible"/>
		</clipPath>
		<path clip-path="url(#SVGID_12_)" fill="#EE3D96" d="M703.815,162.566l320.796-287.843H873.425l-19.386,77.533h-90.137
			l39.737-160.879h327.578l31.013,67.84L856.948,133.493c23.254-6.79,35.851-10.663,63.968-10.663
			c31.013,0,73.651,14.536,93.037,14.536c48.449,0,62.027-25.199,81.402-82.377l39.743,8.724
			c-12.598,72.683-40.714,159.91-127.933,159.91c-32.953,0-117.265-23.26-157.978-23.26c-41.67,0-74.623,8.723-105.636,23.26
			L703.815,162.566z"/>
		<path clip-path="url(#SVGID_12_)" fill="#FFF32A" d="M569.2,732.929l320.796-287.843H738.809l-19.386,77.533h-90.136
			l39.737-160.879h327.577l31.014,67.84L722.333,703.855c23.254-6.79,35.85-10.663,63.967-10.663
			c31.013,0,73.652,14.536,93.038,14.536c48.449,0,62.027-25.2,81.402-82.377l39.742,8.725
			c-12.598,72.683-40.714,159.909-127.933,159.909c-32.953,0-117.264-23.26-157.977-23.26c-41.67,0-74.623,8.724-105.636,23.26
			L569.2,732.929z"/>
		<path clip-path="url(#SVGID_12_)" fill="#D1ECF0" d="M711.584,174.84l320.797-287.843H881.193L861.808-35.47h-90.136
			l39.736-160.879h327.578l31.013,67.84L864.718,145.767c23.254-6.79,35.85-10.663,63.967-10.663
			c31.013,0,73.652,14.536,93.038,14.536c48.449,0,62.026-25.199,81.401-82.377l39.742,8.724
			c-12.597,72.683-40.712,159.91-127.932,159.91c-32.953,0-117.264-23.26-157.978-23.26c-41.67,0-74.623,8.723-105.636,23.26
			L711.584,174.84z"/>
		<path clip-path="url(#SVGID_12_)" fill="#D1ECF0" d="M574.969,745.203L895.765,457.36H744.578l-19.386,77.533h-90.137
			l39.737-160.879h327.578l31.013,67.84L728.102,716.13c23.254-6.79,35.851-10.663,63.967-10.663
			c31.014,0,73.652,14.536,93.039,14.536c48.448,0,62.026-25.2,81.401-82.377l39.742,8.725
			c-12.597,72.683-40.713,159.909-127.932,159.909c-32.953,0-117.265-23.26-157.978-23.26c-41.67,0-74.623,8.724-105.637,23.26
			L574.969,745.203z"/>
	</g>
</g>
</svg>
