<?xml version="1.0" encoding="utf-8"?>
<!-- Generator: Adobe Illustrator 16.0.0, SVG Export Plug-In . SVG Version: 6.00 Build 0)  -->
<!DOCTYPE svg PUBLIC "-//W3C//DTD SVG 1.1//EN" "http://www.w3.org/Graphics/SVG/1.1/DTD/svg11.dtd">
<svg version="1.1" id="Layer_1" xmlns="http://www.w3.org/2000/svg" xmlns:xlink="http://www.w3.org/1999/xlink" x="0px" y="0px"
	 width="864px" height="432.29px" viewBox="0 0 864 432.29" enable-background="new 0 0 864 432.29" xml:space="preserve">
<rect x="-284.569" y="121.006" fill="#FFFFFF" width="258.343" height="202.518"/>
<rect x="36" y="140.623" fill="none" width="466.938" height="82.081"/>
<text transform="matrix(1 0 0 1 36 148.5312)"><tspan x="0" y="0" fill="#4A494A" font-family="'Helvetica'" font-size="11">Inspired by the number one living and breathing rock star, Graduation is a display face meant </tspan><tspan x="0" y="14" fill="#4A494A" font-family="'Helvetica'" font-size="11">for loud, bold statements. This weighty, forward-thinking font will let the rest of your content </tspan><tspan x="0" y="28" fill="#4A494A" font-family="'Helvetica'" font-size="11">finish, but only after it grabs most of the attention for itself.</tspan></text>
<rect x="-123.053" y="247.669" width="42.248" height="41.121"/>
<rect x="-123.053" y="198.783" fill="#4A494A" width="42.248" height="41.121"/>
<rect x="-123.053" y="143.861" fill="#939598" width="42.248" height="41.121"/>
<text transform="matrix(1 0 0 1 35.9053 108)" fill="#939598" font-family="'MyriadPro-Regular'" font-size="16">Graduation. A typeface by Kade Keith.</text>
<g>
	<path fill="#939598" d="M-186.083,159.477v0.94h-2.659v6.95h-1.08v-6.95h-2.659v-0.94H-186.083z"/>
	<path fill="#939598" d="M-184.858,159.477h1.08v7.89h-1.08V159.477z"/>
	<path fill="#939598" d="M-176.308,159.477v0.94h-2.659v6.95h-1.08v-6.95h-2.659v-0.94H-176.308z"/>
	<path fill="#939598" d="M-175.325,159.477h1.069v6.95h3.958v0.94h-5.027V159.477z"/>
	<path fill="#939598" d="M-169.105,159.477h5.726v0.967h-4.684v2.396h4.329v0.913h-4.329v2.675h4.764v0.94h-5.806V159.477z"/>
</g>
<g>
	<path fill="#4A494A" d="M-209.05,216.797c0.024,0.448,0.126,0.811,0.305,1.09c0.341,0.523,0.943,0.784,1.806,0.784
		c0.386,0,0.738-0.057,1.056-0.172c0.614-0.222,0.921-0.62,0.921-1.192c0-0.43-0.13-0.736-0.39-0.918
		c-0.264-0.179-0.677-0.335-1.238-0.467l-1.036-0.242c-0.676-0.158-1.155-0.331-1.436-0.521c-0.486-0.33-0.729-0.822-0.729-1.477
		c0-0.709,0.239-1.291,0.716-1.746c0.478-0.455,1.154-0.682,2.028-0.682c0.805,0,1.489,0.2,2.051,0.599
		c0.563,0.399,0.844,1.038,0.844,1.915h-1.004c-0.052-0.422-0.162-0.747-0.33-0.972c-0.312-0.412-0.843-0.618-1.591-0.618
		c-0.604,0-1.039,0.132-1.303,0.397s-0.396,0.573-0.396,0.924c0,0.387,0.156,0.669,0.468,0.849c0.205,0.115,0.668,0.258,1.39,0.43
		l1.072,0.252c0.517,0.122,0.916,0.288,1.197,0.5c0.486,0.369,0.729,0.904,0.729,1.606c0,0.874-0.31,1.499-0.93,1.875
		c-0.62,0.376-1.34,0.564-2.161,0.564c-0.957,0-1.706-0.25-2.247-0.752c-0.542-0.498-0.807-1.173-0.796-2.025H-209.05z"/>
	<path fill="#4A494A" d="M-201.257,211.453v4.877c0,0.573,0.108,1.049,0.325,1.429c0.321,0.573,0.863,0.859,1.625,0.859
		c0.913,0,1.534-0.31,1.862-0.929c0.177-0.336,0.265-0.79,0.265-1.359v-4.877h1.08v4.431c0,0.97-0.131,1.717-0.394,2.24
		c-0.481,0.953-1.391,1.429-2.727,1.429s-2.244-0.476-2.722-1.429c-0.263-0.523-0.394-1.27-0.394-2.24v-4.431H-201.257z"/>
	<path fill="#4A494A" d="M-194.495,211.453h3.412c0.93,0,1.591,0.276,1.984,0.827c0.231,0.326,0.346,0.702,0.346,1.128
		c0,0.498-0.142,0.906-0.424,1.225c-0.147,0.168-0.358,0.322-0.634,0.462c0.405,0.154,0.707,0.328,0.908,0.521
		c0.354,0.344,0.532,0.818,0.532,1.423c0,0.508-0.16,0.969-0.481,1.38c-0.479,0.616-1.241,0.924-2.286,0.924h-3.356V211.453z
		 M-191.482,214.789c0.456,0,0.811-0.062,1.063-0.188c0.398-0.197,0.597-0.551,0.597-1.063c0-0.516-0.211-0.863-0.635-1.042
		c-0.239-0.1-0.594-0.15-1.064-0.15h-1.927v2.444H-191.482z M-191.121,218.43c0.661,0,1.133-0.19,1.415-0.569
		c0.177-0.24,0.266-0.53,0.266-0.87c0-0.573-0.258-0.963-0.775-1.171c-0.275-0.111-0.638-0.167-1.09-0.167h-2.142v2.777H-191.121z"
		/>
	<path fill="#4A494A" d="M-181.395,211.453v0.94h-2.659v6.95h-1.08v-6.95h-2.659v-0.94H-181.395z"/>
	<path fill="#4A494A" d="M-180.31,211.453h5.726v0.967h-4.684v2.396h4.329v0.913h-4.329v2.675h4.764v0.94h-5.806V211.453z"/>
	<path fill="#4A494A" d="M-172.41,219.343h-1.285l2.792-4.048l-2.618-3.842h1.333l1.991,3.019l1.975-3.019h1.269l-2.617,3.842
		l2.745,4.048h-1.322l-2.102-3.244L-172.41,219.343z"/>
	<path fill="#4A494A" d="M-160.001,211.453v0.94h-2.659v6.95h-1.08v-6.95h-2.659v-0.94H-160.001z"/>
</g>
<g>
	<path d="M-212.335,268.489h1.207l2.864,7.89h-1.171l-0.824-2.363h-3.096l-0.856,2.363h-1.096L-212.335,268.489z M-210.563,273.146
		l-1.214-3.486l-1.263,3.486H-210.563z"/>
	<path d="M-207.301,268.489h1.069v6.95h3.958v0.94h-5.027V268.489z"/>
	<path d="M-201.082,268.489h3.531c0.698,0,1.262,0.198,1.691,0.593c0.429,0.396,0.644,0.952,0.644,1.668
		c0,0.616-0.191,1.152-0.574,1.608c-0.383,0.457-0.969,0.685-1.758,0.685h-2.464v3.335h-1.069V268.489z M-196.936,269.574
		c-0.234-0.111-0.556-0.167-0.965-0.167h-2.112v2.734h2.112c0.476,0,0.863-0.102,1.16-0.306s0.445-0.564,0.445-1.08
		C-196.296,270.176-196.509,269.782-196.936,269.574z"/>
	<path d="M-193.82,268.489h1.08v3.26h4.055v-3.26h1.08v7.89h-1.08v-3.69h-4.055v3.69h-1.08V268.489z"/>
	<path d="M-183.6,268.489h1.207l2.864,7.89h-1.171l-0.824-2.363h-3.096l-0.856,2.363h-1.096L-183.6,268.489z M-181.828,273.146
		l-1.214-3.486l-1.263,3.486H-181.828z"/>
	<path d="M-178.593,268.489h3.412c0.93,0,1.591,0.276,1.984,0.827c0.231,0.326,0.346,0.702,0.346,1.128
		c0,0.498-0.142,0.906-0.424,1.225c-0.147,0.168-0.358,0.322-0.634,0.462c0.405,0.154,0.707,0.328,0.908,0.521
		c0.354,0.344,0.532,0.818,0.532,1.423c0,0.508-0.16,0.969-0.481,1.38c-0.479,0.616-1.241,0.924-2.286,0.924h-3.356V268.489z
		 M-175.581,271.825c0.456,0,0.811-0.062,1.063-0.188c0.398-0.197,0.597-0.551,0.597-1.063c0-0.516-0.211-0.863-0.635-1.042
		c-0.239-0.1-0.594-0.15-1.064-0.15h-1.927v2.444H-175.581z M-175.219,275.466c0.661,0,1.133-0.19,1.415-0.569
		c0.177-0.24,0.266-0.53,0.266-0.87c0-0.573-0.258-0.963-0.775-1.171c-0.275-0.111-0.638-0.167-1.09-0.167h-2.142v2.777H-175.219z"
		/>
	<path d="M-171.127,268.489h5.726v0.967h-4.684v2.396h4.329v0.913h-4.329v2.675h4.764v0.94h-5.806V268.489z"/>
	<path d="M-158.156,268.489v0.94h-2.659v6.95h-1.08v-6.95h-2.659v-0.94H-158.156z"/>
</g>
<g>
	<path d="M-268.856,82.435c1.334,1.289,2.075,2.752,2.222,4.391h-2.551c-0.284-1.245-0.85-2.23-1.698-2.958
		c-0.848-0.728-2.038-1.091-3.57-1.091c-1.868,0-3.376,0.669-4.525,2.006c-1.149,1.338-1.724,3.389-1.724,6.151
		c0,2.264,0.519,4.099,1.556,5.507c1.038,1.408,2.585,2.112,4.643,2.112c1.894,0,3.336-0.74,4.327-2.222
		c0.525-0.78,0.917-1.806,1.175-3.077h2.551c-0.226,2.034-0.971,3.738-2.235,5.114c-1.516,1.657-3.561,2.485-6.134,2.485
		c-2.218,0-4.081-0.68-5.588-2.039c-1.984-1.798-2.976-4.574-2.976-8.328c0-2.85,0.745-5.188,2.235-7.012
		c1.611-1.982,3.833-2.973,6.666-2.973C-272.065,80.502-270.19,81.146-268.856,82.435z"/>
	<path d="M-247.163,83.789c1.279,1.709,1.919,3.896,1.919,6.561c0,2.884-0.732,5.281-2.196,7.191
		c-1.718,2.244-4.167,3.366-7.349,3.366c-2.971,0-5.307-0.981-7.007-2.945c-1.517-1.894-2.274-4.286-2.274-7.179
		c0-2.611,0.648-4.847,1.946-6.705c1.665-2.384,4.128-3.576,7.389-3.576C-251.327,80.502-248.802,81.598-247.163,83.789z
		 M-249.471,96.099c1.03-1.653,1.545-3.555,1.545-5.704c0-2.272-0.594-4.101-1.781-5.487c-1.188-1.386-2.812-2.079-4.871-2.079
		c-1.999,0-3.628,0.687-4.891,2.059c-1.262,1.373-1.893,3.397-1.893,6.072c0,2.141,0.541,3.945,1.624,5.415
		c1.083,1.47,2.837,2.204,5.265,2.204C-252.168,98.579-250.5,97.752-249.471,96.099z"/>
	<path d="M-242.128,81.028h2.616V98.04h9.689v2.301h-12.306V81.028z"/>
	<path d="M-211.245,83.789c1.279,1.709,1.919,3.896,1.919,6.561c0,2.884-0.732,5.281-2.196,7.191
		c-1.718,2.244-4.167,3.366-7.349,3.366c-2.971,0-5.307-0.981-7.007-2.945c-1.517-1.894-2.274-4.286-2.274-7.179
		c0-2.611,0.648-4.847,1.946-6.705c1.665-2.384,4.128-3.576,7.389-3.576C-215.409,80.502-212.884,81.598-211.245,83.789z
		 M-213.553,96.099c1.03-1.653,1.545-3.555,1.545-5.704c0-2.272-0.594-4.101-1.781-5.487c-1.188-1.386-2.812-2.079-4.871-2.079
		c-1.999,0-3.628,0.687-4.891,2.059c-1.262,1.373-1.893,3.397-1.893,6.072c0,2.141,0.541,3.945,1.624,5.415
		c1.083,1.47,2.837,2.204,5.265,2.204C-216.25,98.579-214.583,97.752-213.553,96.099z"/>
	<path d="M-205.894,81.028h8.778c1.446,0,2.638,0.215,3.576,0.644c1.781,0.824,2.672,2.345,2.672,4.562
		c0,1.157-0.239,2.104-0.716,2.84c-0.478,0.736-1.146,1.328-2.005,1.775c0.754,0.307,1.321,0.71,1.703,1.209
		s0.594,1.311,0.638,2.432l0.092,2.59c0.026,0.736,0.087,1.284,0.184,1.643c0.158,0.614,0.438,1.008,0.841,1.183v0.434h-3.208
		c-0.088-0.167-0.158-0.381-0.21-0.644c-0.052-0.263-0.096-0.771-0.131-1.525l-0.158-3.221c-0.06-1.262-0.515-2.108-1.367-2.538
		c-0.486-0.237-1.248-0.355-2.287-0.355h-5.786v8.283h-2.616V81.028z M-197.397,89.876c1.193,0,2.137-0.246,2.832-0.736
		s1.042-1.376,1.042-2.656c0-1.376-0.486-2.314-1.458-2.813c-0.52-0.263-1.214-0.395-2.084-0.395h-6.213v6.6H-197.397z"/>
</g>
<path d="M140.385,344.226c-1.091-1.674-2.287-3.14-3.566-4.387c-0.639-0.625-1.3-1.193-1.979-1.707
	c-1.558-1.177-3.213-2.058-4.933-2.62c-0.667-0.22-1.343-0.392-2.028-0.513c-0.42-0.073-0.843-0.132-1.27-0.171
	c-0.12-0.009-0.241-0.021-0.362-0.026c-0.315-0.021-0.632-0.032-0.95-0.032c-0.698,0-1.417,0.054-2.14,0.16l-0.55,0.083
	l-16.1,16.969l-0.113,0.347c-1.418,4.336-2.137,8.991-2.137,13.842c0,8.267,2.114,16.061,5.953,21.945
	c3.677,5.638,8.534,8.932,13.792,9.397c0.429,0.038,0.861,0.058,1.295,0.058c0.419,0,0.847-0.021,1.28-0.06
	c0.284-0.025,0.57-0.058,0.857-0.099l0.467-0.069l0.085-0.013l0.473-0.499l2.364-2.494l0.173-0.181l13.09-13.801l0.112-0.342
	c1.419-4.338,2.138-8.993,2.138-13.844C146.337,357.903,144.224,350.111,140.385,344.226z M141.494,377.827h-15.339h-9.305
	c-0.243-0.843-0.46-1.705-0.651-2.591h9.986h15.969C141.963,376.111,141.741,376.975,141.494,377.827z M137.129,383.008h-11.037
	h-7.3c-0.392-0.829-0.755-1.694-1.087-2.591h8.418h13.464L137.129,383.008z M132.214,388.188h-5.297h-4.953
	c-0.632-0.798-1.23-1.663-1.788-2.59h5.884h8.612L132.214,388.188z M143.114,366.17c0,0.436-0.01,0.865-0.022,1.296h-16.812h-11.007
	c-0.012-0.43-0.019-0.86-0.019-1.296c0-0.435,0.01-0.865,0.022-1.295h11.036h16.782C143.107,365.305,143.114,365.734,143.114,366.17
	z M138.19,346.742h-11.659h-2.836l2.458-2.59h0.41h9.84C137.036,344.951,137.633,345.815,138.19,346.742z M121.238,349.331h5.26
	h13.077c0.392,0.831,0.756,1.694,1.088,2.592h-14.195h-7.688L121.238,349.331z M131.428,341.562h-2.818l2.116-2.229
	c0.236,0.12,0.471,0.245,0.702,0.381c0.881,0.509,1.73,1.132,2.54,1.849H131.428z M142.944,362.284h-16.603h-10.913
	c0.076-0.87,0.173-1.737,0.302-2.591h10.642h16.265C142.766,360.544,142.867,361.406,142.944,362.284z M126.405,357.104h-10.192
	c0.191-0.875,0.411-1.74,0.66-2.59h9.563h15.08c0.244,0.843,0.462,1.707,0.652,2.59H126.405z M128.417,392.191l-0.776,0.819
	c-1.134-0.576-2.218-1.327-3.241-2.23h3.488h1.87L128.417,392.191z M126.216,372.646h-10.488c-0.127-0.85-0.229-1.714-0.305-2.591
	h10.825h16.691c-0.078,0.871-0.174,1.738-0.303,2.591H126.216z"/>
<path d="M127.625,291.365c3.713-3.088,6.08-7.743,6.08-12.952c0-9.3-7.539-16.837-16.837-16.837c-2.296,0-4.483,0.46-6.478,1.292
	c-0.001-0.713-0.58-1.292-1.295-1.292h-1.294l-12.953,12.952v45.332c0,0.715,0.58,1.295,1.295,1.295h12.952
	c0.715,0,1.294-0.577,1.295-1.292c1.995,0.832,4.182,1.292,6.478,1.292c1.557,0,3.065-0.215,4.497-0.612l11.728-11.728
	c0.397-1.431,0.613-2.938,0.613-4.497C133.706,299.109,131.338,294.455,127.625,291.365z M110.391,308.203v-2.589h20.449
	c-0.083,0.888-0.249,1.756-0.49,2.589H110.391z M110.391,277.119v-2.591h19.959c0.24,0.834,0.406,1.7,0.488,2.591H110.391z
	 M130.837,279.709c-0.082,0.891-0.248,1.756-0.488,2.59h-19.959v-2.59H130.837z M110.391,303.022v-2.591h19.959
	c0.24,0.835,0.406,1.7,0.488,2.591H110.391z M110.391,297.842v-2.591h17.183c0.672,0.793,1.256,1.662,1.741,2.591H110.391z
	 M127.573,287.479h-1.679v-0.013h-15.504v-2.577h18.924C128.829,285.819,128.246,286.688,127.573,287.479z M129.314,271.936h-18.924
	v-2.589h17.183C128.246,270.139,128.829,271.008,129.314,271.936z M124.679,266.757h-14.288v-0.79
	c1.939-1.011,4.14-1.585,6.478-1.585C119.759,264.382,122.446,265.257,124.679,266.757z M121.905,317.413
	c-1.565,0.603-3.262,0.936-5.037,0.936c-2.337,0-4.538-0.575-6.478-1.584v-0.79h12.953L121.905,317.413z M125.934,313.384h-15.543
	v-2.591h18.133L125.934,313.384z"/>
<path d="M249.787,269.42c-1.092-1.674-2.288-3.139-3.567-4.386c-0.639-0.625-1.3-1.194-1.979-1.708
	c-1.559-1.177-3.215-2.057-4.936-2.62c-0.666-0.218-1.342-0.39-2.025-0.512c-0.421-0.075-0.844-0.131-1.27-0.168
	c-0.122-0.011-0.242-0.021-0.363-0.028c-0.316-0.022-0.632-0.034-0.95-0.034c-0.698,0-1.417,0.055-2.139,0.162l-0.55,0.082
	l-8.967,9.453v-6.789c0-0.715-0.579-1.294-1.295-1.294h-1.296l-12.952,12.952v45.332c0,0.715,0.58,1.295,1.295,1.295h12.952
	c0.716,0,1.295-0.58,1.295-1.295v-2.296c3.062,3.038,6.609,4.812,10.361,5.144c0.43,0.037,0.862,0.06,1.295,0.06
	c0.419,0,0.847-0.022,1.279-0.062c0.285-0.023,0.572-0.058,0.859-0.098l0.465-0.07l0.085-0.013l0.475-0.499l2.363-2.492l0.173-0.182
	l13.089-13.799l0.115-0.346c1.417-4.334,2.136-8.991,2.136-13.842C255.738,283.1,253.624,275.306,249.787,269.42z M250.894,303.022
	h-15.339h-9.304c-0.244-0.843-0.46-1.707-0.652-2.591h9.986h15.969C251.363,301.308,251.142,302.172,250.894,303.022z
	 M246.53,308.203h-11.037h-7.299c-0.393-0.829-0.756-1.695-1.089-2.589h8.419h13.463L246.53,308.203z M241.615,313.384h-5.297
	h-4.952c-0.633-0.799-1.231-1.664-1.788-2.591h5.883h8.612L241.615,313.384z M252.514,291.365c0,0.435-0.01,0.865-0.022,1.296
	h-16.811h-11.008c-0.012-0.43-0.02-0.861-0.02-1.296c0-0.434,0.012-0.865,0.024-1.294h11.035h16.784
	C252.506,290.498,252.514,290.931,252.514,291.365z M247.59,271.936h-11.659h-2.836l2.459-2.589h0.41h9.839
	C246.435,270.146,247.033,271.012,247.59,271.936z M230.638,274.528h5.262h13.076c0.392,0.829,0.754,1.694,1.088,2.591h-14.195
	h-7.686L230.638,274.528z M240.829,266.757h-2.817l2.116-2.23c0.236,0.12,0.47,0.246,0.702,0.38
	c0.881,0.512,1.729,1.133,2.539,1.851H240.829z M252.345,287.479h-16.603h-10.913c0.076-0.871,0.174-1.738,0.302-2.59h10.643h16.265
	C252.166,285.739,252.268,286.603,252.345,287.479z M235.806,282.299h-10.192c0.191-0.876,0.412-1.739,0.66-2.59h9.563h15.082
	c0.244,0.842,0.46,1.707,0.65,2.59H235.806z M237.818,317.387l-0.775,0.818c-1.134-0.575-2.22-1.327-3.242-2.23h3.489h1.869
	L237.818,317.387z M235.617,297.842h-10.488c-0.126-0.85-0.229-1.714-0.307-2.591h10.827h16.688
	c-0.076,0.871-0.173,1.736-0.301,2.591H235.617z"/>
<path d="M481.879,261.576h-12.953c-0.715,0-1.295,0.579-1.295,1.294v24.609h-7.771v-24.609c0-0.715-0.579-1.294-1.295-1.294h-1.296
	l-12.951,12.952v45.332c0,0.715,0.58,1.295,1.295,1.295h12.952c0.716,0,1.295-0.58,1.295-1.295v-19.428h7.771v19.428
	c0,0.715,0.58,1.295,1.295,1.295h1.297l12.952-12.951v-45.333C483.175,262.155,482.594,261.576,481.879,261.576z M459.86,290.071
	h7.771v2.59h-7.771V290.071z M459.86,297.842v-2.591h7.771v2.591H459.86z"/>
<path d="M515.707,262.871c0-0.715-0.578-1.294-1.295-1.294h-1.295l-12.951,12.952v45.332c0,0.715,0.58,1.295,1.297,1.295h1.293
	l12.951-12.951V262.871z"/>
<path d="M186.984,336.385c-2.296,0-4.482,0.461-6.476,1.292c-0.003-0.713-0.581-1.292-1.296-1.292h-1.295l-12.952,12.953v45.331
	c0,0.716,0.581,1.294,1.295,1.294h1.295l12.953-12.95v-14.245c1.993,0.831,4.182,1.293,6.476,1.293
	c9.299,0,16.838-7.538,16.838-16.839C203.822,343.925,196.283,336.385,186.984,336.385z M200.954,351.927h-20.445v-2.589h19.957
	C200.707,350.17,200.872,351.037,200.954,351.927z M200.466,357.107h-19.957v-2.589h20.445
	C200.872,355.407,200.707,356.276,200.466,357.107z M199.432,346.745h-18.923v-2.589h17.181
	C198.361,344.948,198.946,345.818,199.432,346.745z M194.795,341.566h-14.286v-0.789c1.938-1.014,4.14-1.586,6.476-1.586
	C189.876,339.191,192.562,340.067,194.795,341.566z M186.984,367.254c-2.336,0-4.538-0.573-6.476-1.585v-0.79h14.286
	C192.562,366.377,189.876,367.254,186.984,367.254z M197.689,362.289h-17.181v-2.593h18.923
	C198.946,360.628,198.361,361.497,197.689,362.289z"/>
<path d="M322.025,353.222c0-9.297-7.538-16.837-16.836-16.837c-2.295,0-4.482,0.461-6.476,1.292
	c-0.002-0.713-0.581-1.292-1.296-1.292h-1.294l-12.951,12.953v45.331c0,0.716,0.579,1.294,1.294,1.294h1.295l12.952-12.95v-14.245
	c1.614,0.674,3.359,1.101,5.181,1.237v7.825v2.591v2.592l12.952,12.95h1.294c0.716,0,1.296-0.578,1.296-1.294v-14.248v-2.591v-2.59
	l-6.877-6.878C318.164,365.631,322.025,359.878,322.025,353.222z M315.894,362.289h-9.411h-2.59h-5.181v-2.593h5.181h13.742
	C317.15,360.628,316.565,361.497,315.894,362.289z M319.158,351.927h-20.445v-2.589h19.958
	C318.91,350.17,319.076,351.037,319.158,351.927z M318.67,357.107h-19.958v-2.589h20.445
	C319.076,355.407,318.91,356.276,318.67,357.107z M317.635,346.745h-18.922v-2.589h17.182
	C316.565,344.948,317.15,345.818,317.635,346.745z M312.999,341.566h-14.287v-0.789c1.937-1.014,4.139-1.586,6.476-1.586
	C308.08,339.191,310.766,340.067,312.999,341.566z M305.188,367.254c-0.437,0-0.869-0.024-1.295-0.063
	c-1.855-0.168-3.605-0.699-5.181-1.521v-0.79h5.181h5.181h3.925c-0.8,0.536-1.661,0.992-2.567,1.359
	C308.812,366.892,307.042,367.254,305.188,367.254z"/>
<path d="M567.668,261.576h-1.293l-12.954,12.952v10.362v3.047v2.899v12.187h-17.855h-0.276h-2.537
	c-0.033,0.427-0.055,0.858-0.055,1.295c0,9.3,7.538,16.837,16.839,16.837c0.437,0,0.866-0.019,1.294-0.052v0.052h3.886h1.296
	l12.951-12.951v-45.333C568.963,262.155,568.383,261.576,567.668,261.576z M553.421,305.614v2.589h-17.368
	c-0.24-0.834-0.404-1.701-0.487-2.589H553.421z M537.09,310.793h16.331v2.591h-14.589
	C538.159,312.592,537.574,311.722,537.09,310.793z M549.536,318.349c-2.893,0-5.579-0.876-7.813-2.374h11.698v1.825
	C552.188,318.154,550.885,318.349,549.536,318.349z"/>
<path d="M258.589,344.226c-1.09-1.674-2.287-3.14-3.566-4.387c-0.639-0.625-1.3-1.193-1.979-1.707
	c-1.558-1.177-3.213-2.058-4.933-2.62c-0.667-0.22-1.343-0.392-2.028-0.513c-0.42-0.073-0.843-0.132-1.269-0.171
	c-0.12-0.009-0.241-0.021-0.362-0.026c-0.314-0.021-0.631-0.032-0.949-0.032c-0.698,0-1.417,0.054-2.141,0.16l-0.55,0.083
	l-16.1,16.969l-0.004,0.013L224.702,352l-0.112,0.345c-1.419,4.335-2.139,8.991-2.139,13.841c0,8.269,2.115,16.06,5.954,21.945
	c3.978,6.099,9.336,9.458,15.087,9.458c0.695,0,1.414-0.054,2.138-0.163l0.552-0.079l4.112-4.337l8.147,8.147h0.864
	c0.476,0,0.863-0.387,0.863-0.864v-11.224v-3.454l-1.467-1.467l3.58-3.775l0.002-0.007l0.01-0.011l0.111-0.342
	c1.419-4.338,2.138-8.993,2.138-13.844C264.542,357.903,262.428,350.111,258.589,344.226z M252.143,341.562h-2.511h-2.818
	l2.095-2.207C250.039,339.927,251.122,340.663,252.143,341.562z M254.597,344.169c0.628,0.793,1.222,1.651,1.776,2.573h-11.638
	h-2.836l2.442-2.573H254.597z M257.77,349.348c0.105,0.223,0.202,0.454,0.303,0.682c0.175,0.394,0.343,0.794,0.504,1.202
	c0.092,0.23,0.186,0.457,0.274,0.691h-14.178h-7.688l2.442-2.575H257.77z M259.71,354.529c0.243,0.836,0.457,1.695,0.647,2.574
	h-15.749h-10.191c0.19-0.87,0.409-1.73,0.656-2.574H259.71z M260.833,359.71c0.125,0.845,0.227,1.703,0.304,2.574h-16.59h-10.913
	c0.076-0.864,0.172-1.726,0.3-2.574H260.833z M247.949,390.795l-1.327,1.396l-0.776,0.819c-1.128-0.573-2.206-1.319-3.225-2.216
	H247.949z M250.419,388.188h-5.297h-4.953c-0.629-0.793-1.222-1.652-1.777-2.572h3.643h7.771h3.054L250.419,388.188z
	 M255.333,383.008h-11.037h-7.3c-0.39-0.824-0.75-1.685-1.082-2.575h6.121h5.181h2.59h5.18h2.591h0.199L255.333,383.008z
	 M244.358,377.827h-9.304c-0.241-0.837-0.457-1.695-0.647-2.574h12.809h10.361h2.771c-0.189,0.87-0.41,1.729-0.657,2.574H244.358z
	 M244.421,372.646h-10.488c-0.126-0.845-0.227-1.704-0.304-2.575h27.503c-0.077,0.868-0.173,1.728-0.3,2.575H244.421z
	 M244.483,367.466h-11.007c-0.012-0.43-0.019-0.86-0.019-1.296c0-0.429,0.01-0.854,0.022-1.278h27.809
	c0.013,0.43,0.02,0.861,0.02,1.294c0,0.43-0.011,0.854-0.023,1.28H244.483z"/>
<path d="M620.925,261.576h-1.296l-12.951,12.952v2.591v2.59v5.181h-5.181v-2.591v-16.837c0-0.716-0.58-1.295-1.297-1.295h-1.296
	l-12.951,12.953v5.18v5.182v29.788c0,0.716,0.58,1.297,1.298,1.297h1.292l12.954-12.951v-7.772h5.181v5.182v2.591v2.59l12.951,12.95
	h1.296c0.715,0,1.294-0.579,1.294-1.295v-14.245v-2.591v-2.591l-9.065-9.067l9.065-9.066v-2.59v-2.59v-14.248
	C622.219,262.156,621.64,261.576,620.925,261.576z M606.678,287.48v2.592h-5.181v-2.592H606.678z M601.497,295.253v-2.591h5.181
	v2.591H601.497z"/>
<g>
	<path d="M706.711,261.577h-1.295l-12.951,12.952v45.332c0,0.715,0.578,1.294,1.294,1.294h12.952c0.717,0,1.294-0.579,1.294-1.294
		v-56.988C708.005,262.157,707.428,261.577,706.711,261.577z"/>
	<path d="M737.796,261.577h-12.951c-0.715,0-1.297,0.58-1.297,1.295v1.295h-2.589v-1.295c0-0.715-0.581-1.295-1.295-1.295h-7.771
		c-0.715,0-1.296,0.58-1.296,1.295v1.295h-2.592v2.59h2.592v2.59h-2.592v2.589h2.592v2.592h-2.592v2.591h2.592v6.476
		c0,0.714,0.581,1.295,1.296,1.295h7.771c0.714,0,1.295-0.581,1.295-1.295v-6.476h2.589v42.741c0,0.715,0.582,1.294,1.297,1.294
		h1.295l12.951-12.95v-45.332C739.091,262.157,738.513,261.577,737.796,261.577z M720.959,266.757h2.589v2.59h-2.589V266.757z
		 M720.959,274.528v-2.592h2.589v2.592H720.959z"/>
</g>
<g>
	<path d="M621.104,336.325h-12.95c-0.716,0-1.298,0.58-1.298,1.298v56.987c0,0.715,0.582,1.294,1.298,1.294h1.295l12.952-12.952
		v-45.329C622.4,336.905,621.82,336.325,621.104,336.325z"/>
	<path d="M604.265,373.888c0-0.716-0.578-1.296-1.295-1.296h-7.771c-0.714,0-1.296,0.58-1.296,1.296v6.477h-2.589v-42.741
		c0-0.718-0.58-1.298-1.296-1.298h-1.295l-12.952,12.953v45.332c0,0.715,0.58,1.294,1.294,1.294h12.953
		c0.716,0,1.296-0.579,1.296-1.294v-1.296h2.589v1.296c0,0.715,0.582,1.294,1.296,1.294h7.771c0.717,0,1.295-0.579,1.295-1.294
		v-1.296h2.591v-2.59h-2.591v-2.591h2.591v-2.59h-2.591v-2.592h2.591v-2.588h-2.591V373.888z M593.903,390.725h-2.589v-2.591h2.589
		V390.725z M593.903,385.544h-2.589v-2.592h2.589V385.544z"/>
</g>
<path d="M84.334,336.326H71.382c-0.715,0-1.295,0.581-1.295,1.295v29.789h-2.59v-1.726v-3.454l-8.634-8.635H58
	c-0.478,0-0.864,0.388-0.864,0.864v2.589h-2.59v-19.428c0-0.714-0.58-1.295-1.296-1.295h-1.295l-12.952,12.953v45.331
	c0,0.716,0.58,1.294,1.295,1.294H53.25c0.716,0,1.296-0.578,1.296-1.294v-29.79h2.59v0.864v3.453l8.634,8.634h0.864
	c0.478,0,0.863-0.386,0.863-0.861v-1.729h2.59v19.429c0,0.716,0.58,1.294,1.295,1.294h1.296l12.951-12.95v-45.333
	C85.629,336.907,85.051,336.326,84.334,336.326z M54.546,362.23v-2.593h2.59v2.593H54.546z M67.497,372.592v-2.59h2.59v2.59H67.497z
	"/>
<path d="M356.196,349.338h12.952h2.589h6.477c0.716,0,1.296-0.581,1.296-1.294V337.68c0-0.714-0.58-1.295-1.296-1.295h-6.477h-2.589
	h-14.247h-1.296l-12.953,12.953v7.77v5.182l12.953,12.951h1.296c0.714,0,1.294-0.578,1.294-1.295v-1.295h7.771v2.59v7.772h-7.771
	h-2.59h-11.657c-0.716,0-1.296,0.58-1.296,1.295v10.361c0,0.716,0.58,1.294,1.296,1.294h11.657h2.59h9.066h1.294l12.954-12.95
	v-7.772v-5.18l-12.954-12.953h-1.294c-0.715,0-1.295,0.581-1.295,1.296v1.293h-7.771v-2.589V349.338z M356.196,370.061v-2.592h7.771
	v2.592H356.196z M363.967,362.289v2.59h-7.771v-2.59H363.967z"/>
<path d="M500.954,336.325h-12.953c-0.713,0-1.293,0.58-1.293,1.298v45.329h-10.361v-45.329c0-0.718-0.58-1.298-1.298-1.298h-1.295
	l-12.95,12.953v45.332c0,0.715,0.58,1.294,1.294,1.294h1.295h24.608h1.298l12.95-12.952v-45.329
	C502.249,336.905,501.671,336.325,500.954,336.325z"/>
<path d="M675.998,336.325h-1.295l-12.952,12.953v2.591v2.589v5.182h-5.18v-5.182v-2.589v-2.591l-12.952-12.953h-1.296
	c-0.713,0-1.294,0.58-1.294,1.298v14.246v2.589v2.59l9.065,9.068l-9.065,9.065v2.591v2.592v14.246c0,0.715,0.581,1.294,1.294,1.294
	h1.296l12.952-12.952v-2.588v-2.592v-5.181h5.18v5.181v2.592v2.588l12.952,12.952h1.295c0.718,0,1.296-0.579,1.296-1.294v-14.246
	v-2.592v-2.591l-9.065-9.065l9.065-9.068v-2.59v-2.589v-14.246C677.294,336.905,676.716,336.325,675.998,336.325z M661.751,362.229
	v2.592h-5.18v-2.592H661.751z M656.571,370.001v-2.589h5.18v2.589H656.571z"/>
<path d="M730.893,336.325H717.94c-0.714,0-1.296,0.58-1.296,1.298v14.246h-5.18v-5.181l-12.952-12.954h-1.297
	c-0.714,0-1.294,0.582-1.294,1.298v16.837v5.179l12.952,12.953h1.294c0.719,0,1.297-0.579,1.297-1.295v-3.886h5.18v29.79
	c0,0.715,0.582,1.294,1.296,1.294h1.295l12.954-12.952v-45.329C732.189,336.905,731.609,336.325,730.893,336.325z M716.645,354.458
	v2.59h-5.18v-2.59H716.645z M711.465,362.229v-2.589h5.18v2.589H711.465z"/>
<path d="M440.881,336.325h-9.066h-3.886h-1.295h-9.065h-6.478h-2.59l-10.362,10.363v1.295c0,0.714,0.58,1.295,1.296,1.295h9.066
	h2.59h2.592v45.332c0,0.715,0.578,1.294,1.296,1.294h1.293l12.952-12.952v-33.674h2.591h9.066c0.714,0,1.294-0.581,1.294-1.295
	v-10.36C442.175,336.905,441.595,336.325,440.881,336.325z"/>
<path d="M793.56,383.011h-9.066h-2.59h-6.477h-6.476v-7.771v-2.591h7.771v1.297c0,0.715,0.579,1.294,1.294,1.294h1.297
	l12.949-12.952v-2.59v-2.591v-9.064v-1.297v-9.065c0-0.717-0.579-1.296-1.295-1.296h-6.475h-2.59h-11.658h-6.476h-2.593
	l-10.358,10.361v1.297c0,0.714,0.582,1.294,1.294,1.294h9.064h2.593h6.476h6.478v7.771v2.591h-7.771v-1.295
	c0-0.716-0.58-1.296-1.297-1.296h-1.294l-12.951,12.952v2.59v2.591v9.067v1.295v9.066c0,0.716,0.579,1.295,1.293,1.295h6.475h2.593
	h11.657h6.477h2.59l10.361-10.361v-1.295C794.854,383.591,794.276,383.011,793.56,383.011z M768.951,370.059v-2.59h7.771v2.59
	H768.951z M776.723,362.287v2.591h-7.771v-2.591H776.723z"/>
<path d="M674.18,308.204h-9.067h-2.59h-6.476h-1.295v-45.333c0-0.715-0.58-1.295-1.297-1.295h-1.294l-12.952,12.952v45.332
	c0,0.716,0.581,1.295,1.294,1.295h1.297l0,0h2.591l0,0h11.656h6.476h2.59l10.362-10.36v-1.295
	C675.475,308.784,674.896,308.204,674.18,308.204z"/>
<path d="M64.907,261.576h-1.295H53.249h-1.294h0l0,0l-12.951,12.952v45.332c0,0.715,0.58,1.295,1.295,1.295h12.951
	c0.716,0,1.296-0.58,1.296-1.295v-24.608h7.771v24.608c0,0.715,0.579,1.295,1.295,1.295h1.295l12.952-12.951v-33.675L64.907,261.576
	z M54.545,279.709h7.771v7.771h-7.771V279.709z M54.545,277.119v-2.591h7.771v2.591H54.545z M54.545,271.936v-2.589h7.771v2.589
	H54.545z M54.545,266.757v-2.591h7.771v2.591H54.545z M54.545,292.661v-2.59h7.771v2.59H54.545z"/>
<path d="M296.041,271.936h14.248c0.714,0,1.294-0.578,1.294-1.292c0-0.001,0-0.002,0-0.002s0,0,0-0.001v-7.771
	c0-0.715-0.579-1.294-1.294-1.294h-14.248h-7.77l-15.543,15.543v42.74c0,0.715,0.581,1.295,1.295,1.295h9.066h3.885h9.066h5.181
	h2.591l7.77-7.771v-1.294c0-0.716-0.579-1.297-1.294-1.297h-9.067h-5.181h-7.77v-12.951h12.951h2.591v-2.591v-2.59v-2.59v-2.592
	v-2.59h-2.591h-12.951v-12.954H296.041z M301.222,295.251h-12.951v-2.59h12.951V295.251z M301.222,287.479v2.592h-12.951v-2.592
	H301.222z"/>
<path d="M186.024,305.614l-11.168,11.772l-0.776,0.818c-7.179-3.64-12.389-14.295-12.389-26.84c0-4.381,0.628-8.583,1.867-12.497
	l13.605-14.341c0.236,0.12,0.471,0.246,0.702,0.38c3.896,2.266,7.157,6.625,9.236,12.212h2.59h0.816
	c-0.95-2.799-2.185-5.397-3.685-7.699c-1.092-1.674-2.288-3.139-3.565-4.386c-0.641-0.625-1.3-1.194-1.98-1.708
	c-1.557-1.177-3.214-2.057-4.933-2.62c-0.667-0.218-1.344-0.39-2.028-0.512c-0.42-0.075-0.843-0.131-1.269-0.168
	c-0.121-0.011-0.241-0.021-0.362-0.028c-0.315-0.022-0.633-0.034-0.949-0.034c-0.698,0-1.418,0.055-2.141,0.162l-0.55,0.082
	l-16.101,16.973l-0.112,0.344c-1.419,4.334-2.138,8.992-2.138,13.842c0,8.267,2.114,16.06,5.952,21.945
	c3.677,5.639,8.534,8.931,13.793,9.396c0.429,0.037,0.86,0.06,1.296,0.06c0.418,0,0.847-0.022,1.279-0.062
	c0.284-0.023,0.569-0.058,0.857-0.098l0.467-0.07l0.084-0.013l0.476-0.499l2.361-2.492l0.174-0.182l13.032-13.737h-1.854H186.024z"
	/>
<path stroke="#000000" stroke-width="0.2878" stroke-miterlimit="10" d="M555.848,336.325h-1.295l-12.951,12.953v31.086h-5.182
	v-31.086l-12.949-12.953h-1.297c-0.717,0-1.297,0.58-1.297,1.298v45.329l12.953,12.952h1.295c0.715,0,1.295-0.579,1.295-1.294
	v-1.296h5.182v1.296c0,0.715,0.58,1.294,1.295,1.294h1.293l12.953-12.952v-45.329C557.143,336.905,556.561,336.325,555.848,336.325z
	 M541.602,390.725h-5.182v-2.591h5.182V390.725z M541.602,385.544h-5.182v-2.592h5.182V385.544z"/>
<path d="M427.229,303.862c-0.114-0.273-0.324-0.497-0.585-0.636c-0.182-0.098-0.386-0.156-0.606-0.156h-1.17h-0.76h-1.822h-0.76
	h-2.582h-1.942h-2.582h-6.454c-0.714,0-1.291,0.576-1.291,1.29v2.582c0,0.712,0.577,1.29,1.291,1.29h2.266h1.606v0.324v2.581
	l-5.926,6.248l-0.774,0.816c-7.154-3.628-12.348-14.248-12.348-26.752c0-4.367,0.626-8.556,1.861-12.457l13.56-14.294
	c0.236,0.119,0.47,0.245,0.7,0.379c3.884,2.258,7.133,6.604,9.205,12.171h2.582h0.814c-0.947-2.79-2.177-5.378-3.673-7.672
	c-1.087-1.668-2.279-3.128-3.554-4.372c-0.638-0.623-1.297-1.19-1.974-1.702c-1.553-1.174-3.202-2.05-4.918-2.612
	c-0.664-0.218-1.338-0.389-2.02-0.51c-0.42-0.075-0.841-0.13-1.266-0.168c-0.12-0.011-0.24-0.021-0.361-0.028
	c-0.314-0.021-0.63-0.033-0.947-0.033c-0.695,0-1.412,0.055-2.133,0.162l-0.548,0.081l-16.047,16.917l-0.113,0.344
	c-1.413,4.32-2.13,8.963-2.13,13.797c0,8.237,2.107,16.007,5.933,21.873c3.665,5.619,8.507,8.901,13.748,9.366
	c0.427,0.038,0.858,0.06,1.29,0.06c0.418,0,0.846-0.021,1.275-0.061c0.284-0.027,0.569-0.058,0.855-0.101l0.466-0.068l0.085-0.013
	l0.472-0.498l2.355-2.483l0.172-0.181l3.356-3.538v0.141v0.774v1.947v1.184c0,0.085,0.01,0.168,0.025,0.249
	c0.117,0.594,0.639,1.042,1.266,1.042h1.291l12.909-12.911l0,0v-0.591v-1.991v-1.29
	C427.328,304.184,427.292,304.016,427.229,303.862z"/>
<polygon fill="none" points="357.068,287.479 353.507,287.479 353.667,290.071 357.068,290.071 "/>
<polygon fill="none" points="357.068,292.661 353.827,292.661 353.987,295.251 357.068,295.251 "/>
<polygon fill="none" points="344.117,292.661 344.117,295.251 353.987,295.251 353.827,292.661 "/>
<polygon fill="none" points="344.117,287.479 344.117,290.071 353.667,290.071 353.507,287.479 "/>
<path d="M363.544,261.576h-6.478h-2.589H342.82h-1.295l-12.952,12.952v45.332c0,0.715,0.581,1.295,1.295,1.295h1.295l12.952-12.951
	v-10.361h10.032h2.92h2.59h0.001v-2.591v-2.59v-2.59v-2.592v-2.59h-0.001h-2.59h-3.722h-9.23v-10.362h10.362h2.589h6.478
	c0.715,0,1.294-0.58,1.294-1.295v-10.362C364.839,262.155,364.259,261.576,363.544,261.576z M353.987,295.251h-9.872v-2.59h9.711
	h3.241v2.59H353.987z M353.507,287.479h3.561v2.592h-3.401h-9.551v-2.592H353.507z"/>
</svg>
