<?xml version="1.0" encoding="utf-8"?>
<!-- Generator: Adobe Illustrator 16.0.0, SVG Export Plug-In . SVG Version: 6.00 Build 0)  -->
<!DOCTYPE svg PUBLIC "-//W3C//DTD SVG 1.1//EN" "http://www.w3.org/Graphics/SVG/1.1/DTD/svg11.dtd">
<svg version="1.1" id="Layer_1" xmlns="http://www.w3.org/2000/svg" xmlns:xlink="http://www.w3.org/1999/xlink" x="0px" y="0px"
	 width="576px" height="576px" viewBox="0 0 576 576" enable-background="new 0 0 576 576" xml:space="preserve">
<path d="M420.623,196.786c-6.518-18.142-15.872-25.03-28.046-20.656c-4.729,1.697-8.428,4.08-11.114,7.149
	c-2.687,3.069-3.27,6.721-1.752,10.943c1.162,3.234,2.806,5.873,4.945,7.904c2.133,2.043,4.498,4.141,7.1,6.292
	c2.597,2.158,5.162,4.815,7.703,7.968c2.536,3.157,4.833,7.596,6.888,13.312c3.035,8.453,3.625,17.713,1.771,27.779
	c-1.855,10.071-4.975,19.959-9.339,29.664c-3.951,8.779-8.377,17.242-13.229,25.419c1.23-9.852,0.371-18.914-2.598-27.178
	c-1.965-5.472-4.95-10.853-8.958-16.148c-4.007-5.296-8.155-10.402-12.447-15.312L345.95,235.11
	c-2.494-3.039-4.795-5.929-6.906-8.675c-2.108-2.756-3.924-6.24-5.442-10.464c-2.679-7.458-3.195-13.585-1.553-18.386l-5.785-0.868
	c-0.07,0.461-0.156,0.938-0.25,1.422l-4.671,8.21c-7.178,12.756-12.737,25.066-16.68,36.93c-1.991,3.18-4.159,6.869-6.515,11.108
	L288,272.356l-10.148-17.972c-2.355-4.238-4.524-7.93-6.516-11.108c-3.942-11.863-9.501-24.172-16.679-36.926l-4.67-8.212
	c-0.094-0.484-0.179-0.961-0.25-1.422l-5.785,0.868c1.644,4.8,1.125,10.929-1.553,18.386c-1.517,4.224-3.335,7.708-5.442,10.464
	c-2.111,2.746-4.411,5.636-6.904,8.675l-15.599,18.812c-4.29,4.91-8.439,10.02-12.447,15.314
	c-4.007,5.296-6.992,10.677-8.957,16.148c-2.968,8.264-3.828,17.325-2.599,27.176c-4.849-8.178-9.275-16.641-13.226-25.417
	c-4.366-9.706-7.485-19.593-9.34-29.666c-1.855-10.064-1.265-19.324,1.771-27.776c2.054-5.717,4.352-10.155,6.888-13.312
	c2.541-3.152,5.107-5.811,7.703-7.97c2.602-2.149,4.966-4.245,7.1-6.29c2.139-2.031,3.784-4.671,4.945-7.904
	c1.518-4.223,0.936-7.874-1.752-10.943c-2.685-3.07-6.387-5.451-11.113-7.149c-12.175-4.374-21.529,2.515-28.047,20.656
	c-2.946,8.2-4.335,16.755-4.163,25.654c0.169,8.903,1.37,17.686,3.589,26.339c2.223,8.659,5.241,17.246,9.051,25.772
	c3.819,8.525,7.765,16.472,11.856,23.832l13.122,23.236c2.355,4.239,4.523,7.93,6.514,11.106
	c3.942,11.864,9.502,24.176,16.681,36.93l4.671,8.212c0.093,0.483,0.178,0.961,0.25,1.422l5.784-0.869
	c-1.643-4.801-1.125-10.927,1.554-18.386c1.517-4.225,3.334-7.708,5.442-10.463c2.111-2.746,4.411-5.639,6.905-8.676l15.598-18.812
	c4.291-4.91,8.439-10.018,12.447-15.314c4.007-5.295,6.993-10.674,8.958-16.146c2.969-8.264,3.827-17.326,2.597-27.178
	c2.924,4.931,5.685,9.972,8.283,15.121c-3.908,7.101-7.687,14.72-11.347,22.888c-3.81,8.525-6.827,17.113-9.051,25.773
	c-2.22,8.651-3.42,17.436-3.589,26.336c-0.172,8.901,1.218,17.455,4.163,25.656c5.645,15.711,13.418,22.977,23.307,21.802
	c9.889,1.175,17.663-6.091,23.307-21.802c2.946-8.201,4.335-16.755,4.163-25.656c-0.169-8.899-1.368-17.686-3.59-26.336
	c-2.223-8.66-5.241-17.248-9.051-25.773c-3.659-8.168-7.438-15.787-11.347-22.888c2.599-5.148,5.358-10.188,8.283-15.119
	c-1.229,9.85-0.371,18.914,2.598,27.176c1.965,5.472,4.95,10.853,8.957,16.146c4.008,5.297,8.158,10.406,12.447,15.316l15.6,18.812
	c2.492,3.037,4.793,5.929,6.904,8.675c2.107,2.755,3.924,6.239,5.441,10.463c2.679,7.457,3.197,13.585,1.553,18.386l5.785,0.869
	c0.071-0.461,0.156-0.938,0.25-1.422l4.67-8.212c7.18-12.755,12.738-25.062,16.68-36.927c1.993-3.179,4.161-6.869,6.517-11.108
	l13.122-23.235c4.09-7.363,8.036-15.309,11.855-23.834c3.811-8.525,6.827-17.115,9.051-25.774c2.221-8.65,3.42-17.436,3.59-26.337
	C424.958,213.54,423.569,204.988,420.623,196.786z M255.188,264.634c-3.395,9.449-7.694,17.724-12.916,24.827
	c-5.219,7.109-11.129,14.387-17.736,21.834c-4.38,5.16-8.124,9.921-11.234,14.275c-1.724,2.421-3.235,4.805-4.547,7.154
	c-0.033-0.373-0.082-0.738-0.11-1.115c-0.509-6.782,0.439-13.524,2.851-20.237c3.395-9.448,7.694-17.726,12.916-24.827
	c5.218-7.109,11.129-14.387,17.735-21.833c4.38-5.162,8.124-9.921,11.234-14.275c1.724-2.42,3.234-4.805,4.547-7.155
	c0.033,0.375,0.082,0.738,0.11,1.116C258.548,251.18,257.6,257.922,255.188,264.634z M289.461,288.864
	c4.365,9.704,7.482,19.593,9.34,29.665c1.855,10.066,1.266,19.324-1.771,27.777c-2.053,5.715-4.35,10.153-6.887,13.312
	c-0.713,0.884-1.427,1.719-2.143,2.523c-0.716-0.806-1.431-1.641-2.143-2.523c-2.536-3.158-4.833-7.598-6.888-13.312
	c-3.035-8.451-3.626-17.711-1.771-27.775c1.855-10.073,4.975-19.961,9.34-29.666c0.472-1.048,0.976-2.077,1.461-3.118
	C288.485,286.787,288.989,287.816,289.461,288.864z M351.462,311.294c-6.605-7.446-12.517-14.724-17.734-21.833
	c-5.222-7.102-9.521-15.378-12.915-24.827c-2.412-6.712-3.36-13.455-2.852-20.236c0.028-0.378,0.078-0.741,0.11-1.116
	c1.312,2.35,2.821,4.735,4.547,7.154c3.109,4.355,6.854,9.114,11.233,14.276c6.606,7.446,12.518,14.724,17.735,21.833
	c5.222,7.104,9.521,15.379,12.916,24.826c2.411,6.714,3.359,13.454,2.85,20.238c-0.027,0.377-0.076,0.742-0.109,1.115
	c-1.312-2.351-2.822-4.735-4.546-7.156C359.587,321.216,355.843,316.455,351.462,311.294z"/>
</svg>
