<?xml version="1.0" encoding="utf-8"?>
<!-- Generator: Adobe Illustrator 16.0.0, SVG Export Plug-In . SVG Version: 6.00 Build 0)  -->
<!DOCTYPE svg PUBLIC "-//W3C//DTD SVG 1.1//EN" "http://www.w3.org/Graphics/SVG/1.1/DTD/svg11.dtd">
<svg version="1.1" id="Layer_1" xmlns="http://www.w3.org/2000/svg" xmlns:xlink="http://www.w3.org/1999/xlink" x="0px" y="0px"
	 width="600.547px" height="538.317px" viewBox="0 0 600.547 538.317" enable-background="new 0 0 600.547 538.317"
	 xml:space="preserve">
<g enable-background="new    ">
	<path fill="#660000" d="M146.257,88.026L204.366,247.6h-18.018l-17.681-48.875h-68.582L82.404,247.6H64.161l58.785-159.574H146.257
		z M134.32,103.679l-28.604,80.068h57.095L134.32,103.679z"/>
</g>
<path fill="#660000" d="M380.613,512.245l-3.861-5.579c-0.333-0.48-32.785-47.229-52.604-63.98
	c-20.328-4.836-39.503-24.022-46.646-31.849c-12.948,2.743-30.65,5.873-48.026,5.873c-38.123,0-62.631-14.969-72.902-44.5
	c-15.814-8.438-23.629-27.359-23.517-44.779c-4.5,0.531-9.001,0.8-13.46,0.8c-28.851,0-54.935-10.933-73.448-30.785
	c-20.323-21.793-29.749-52.14-27.259-87.76l0.059-0.542c5.218-35.42,17.996-66.513,37.979-92.415
	c21.135-27.394,50.49-49.153,87.25-64.674l0.345-0.135c47.343-17.151,93.684-25.847,137.735-25.847
	c44.988,0,87.679,8.997,126.885,26.741c35.104,15.888,66.661,38.361,93.793,66.795c48.062,50.369,78.371,117.053,79.098,174.029
	c0.352,27.537-6.347,50.995-19.37,67.84c-13.094,16.936-32.352,26.845-55.972,28.881c-2.663,18.313-15.615,33.603-37.836,44.508
	c-19.476,9.557-44.916,15.039-69.795,15.039c-0.003,0-0.003,0-0.006,0c-2.075,0-4.125-0.04-6.14-0.12
	c3.289,7.677,11.599,20.586,21.092,32.277l5.104,6.286L380.613,512.245z M282.805,395.074l2.779,3.354
	c0.218,0.263,22.31,26.622,43.12,30.65l1.729,0.335l1.374,1.101C349.12,444.385,374.808,479.32,384.57,493l13.42-8.33
	c-2.507-3.348-5.668-7.726-8.753-12.437c-13.039-19.911-12.931-27.802-11.38-32.451l1.816-5.447l5.709,0.611
	c4.3,0.461,8.899,0.695,13.674,0.695c38.771,0.001,93.532-16.17,93.885-52.126l0.067-6.884l6.882-0.176
	c22.448-0.574,39.771-8.549,51.488-23.703c11.034-14.271,16.702-34.65,16.393-58.934c-0.684-53.517-29.48-116.497-75.155-164.363
	c-25.862-27.103-55.925-48.517-89.354-63.647c-37.346-16.902-78.057-25.472-121.003-25.472c-42.335,0-86.983,8.388-132.703,24.931
	c-67.132,28.4-106.313,77.417-116.455,145.684c-2.142,31.454,5.975,57.993,23.48,76.765c15.785,16.927,38.164,26.249,63.015,26.249
	c6.616,0,13.35-0.676,20.015-2.009l10.419-2.085l-2.018,10.434c-2.85,14.734,3.365,34.41,17.161,40.216l3.08,1.296l0.975,3.196
	c7.685,25.187,27.392,37.431,60.247,37.431c17.907,0,36.584-3.67,49.075-6.43L282.805,395.074z"/>
<g enable-background="new    ">
	<path fill="#660000" d="M274.041,135.306L332.15,294.88h-18.019l-17.681-48.875h-68.582l-17.681,48.875h-18.243l58.785-159.574
		H274.041z M262.104,150.959L233.5,231.028h57.095L262.104,150.959z"/>
</g>
<g enable-background="new    ">
	<path fill="#660000" d="M366.99,176.316V335.89h-17.006V176.316H366.99z"/>
</g>
<g enable-background="new    ">
	<path fill="#660000" d="M408.246,325.935c0.374,5.706,1.67,10.942,3.885,15.71c2.213,4.769,5.141,8.896,8.783,12.387
		c3.641,3.491,7.957,6.214,12.951,8.165c4.992,1.953,10.49,2.928,16.498,2.928c5.33,0,10.435-0.58,15.315-1.745
		c4.88-1.163,9.179-3.021,12.895-5.574c3.716-2.552,6.681-5.856,8.896-9.91c2.214-4.055,3.322-9.01,3.322-14.865
		c0-4.73-1.202-8.745-3.604-12.05c-2.402-3.303-5.557-6.175-9.459-8.615c-3.904-2.438-8.354-4.522-13.345-6.25
		c-4.993-1.727-10.042-3.378-15.146-4.955c-6.382-1.876-12.782-3.979-19.201-6.307c-6.419-2.326-12.2-5.293-17.343-8.896
		s-9.329-8.089-12.557-13.457c-3.229-5.367-4.842-12.03-4.842-19.989c0-6.605,1.295-12.443,3.885-17.512
		c2.59-5.067,6.23-9.327,10.924-12.781c4.691-3.452,10.285-6.062,16.779-7.827c6.493-1.763,13.645-2.646,21.453-2.646
		c6.906,0,13.025,0.695,18.356,2.084c5.329,1.39,10.003,3.266,14.021,5.631c4.016,2.364,7.394,5.105,10.135,8.221
		c2.74,3.116,4.992,6.438,6.758,9.966c1.763,3.53,3.077,7.151,3.941,10.867c0.861,3.717,1.407,7.303,1.633,10.755h-17.455
		c-0.451-5.33-1.729-10.022-3.83-14.077c-2.102-4.054-4.824-7.449-8.164-10.191c-3.342-2.739-7.189-4.804-11.543-6.193
		c-4.355-1.389-8.973-2.084-13.852-2.084c-4.431,0-8.803,0.451-13.119,1.352c-4.318,0.901-8.164,2.385-11.543,4.448
		c-3.379,2.066-6.12,4.73-8.221,7.996c-2.104,3.266-3.153,7.264-3.153,11.993c0,4.881,1.183,9.028,3.547,12.444
		c2.365,3.417,5.519,6.345,9.46,8.783c3.941,2.44,8.445,4.562,13.514,6.363c5.067,1.802,10.305,3.529,15.709,5.18
		c6.457,1.953,12.875,4.093,19.258,6.419c6.381,2.328,12.086,5.257,17.117,8.784c5.029,3.53,9.103,7.902,12.219,13.12
		c3.115,5.219,4.674,11.694,4.674,19.426c0,7.809-1.428,14.659-4.279,20.552c-2.854,5.895-6.833,10.83-11.938,14.809
		c-5.106,3.98-11.168,6.965-18.188,8.953c-7.021,1.988-14.695,2.984-23.029,2.984c-7.508,0-14.791-1.258-21.848-3.772
		s-13.344-6.138-18.862-10.867c-5.519-4.73-10.005-10.454-13.458-17.174c-3.453-6.718-5.293-14.246-5.518-22.579H408.246z"/>
</g>
<rect x="298.497" y="33.706" fill="#660000" width="3.566" height="38.3"/>
<path fill="#660000" d="M300.28,81.8c-3.445,0-6.248-2.803-6.248-6.249s2.803-6.248,6.248-6.248s6.248,2.803,6.248,6.248
	S303.726,81.8,300.28,81.8z M300.28,72.87c-1.479,0-2.682,1.203-2.682,2.682c0,1.479,1.203,2.682,2.682,2.682
	s2.682-1.203,2.682-2.682C302.962,74.073,301.759,72.87,300.28,72.87z"/>
<polygon fill="#660000" points="335.553,124.193 315.416,104.058 315.416,37.231 318.982,37.231 318.982,102.58 338.074,121.671 "/>
<g>
	<path fill="#660000" d="M340.297,122.041c2.421,0,4.385,1.967,4.385,4.393c0,2.429-1.964,4.396-4.385,4.396
		c-2.433,0-4.396-1.967-4.396-4.396C335.899,124.007,337.864,122.041,340.297,122.041z"/>
	<path fill="#660000" d="M340.297,132.613c-3.407,0-6.18-2.772-6.18-6.179c-0.001-1.65,0.642-3.202,1.809-4.368
		c1.166-1.166,2.719-1.809,4.371-1.809c3.401,0,6.168,2.771,6.168,6.176C346.465,129.841,343.698,132.613,340.297,132.613z
		 M340.297,123.824c-0.7,0-1.357,0.271-1.851,0.764c-0.492,0.492-0.764,1.147-0.763,1.845c0,1.441,1.172,2.613,2.613,2.613
		c1.435,0,2.602-1.172,2.602-2.613C342.898,124.995,341.731,123.824,340.297,123.824z"/>
</g>
<polygon fill="#660000" points="332.496,86.307 329.974,83.785 348.847,64.905 348.847,46.369 352.413,46.369 352.413,66.381 "/>
<path fill="#660000" d="M328.587,92.938c-3.443,0-6.246-2.802-6.246-6.246s2.803-6.246,6.246-6.246c3.444,0,6.246,2.802,6.246,6.246
	S332.031,92.938,328.587,92.938z M328.587,84.012c-1.478,0-2.68,1.202-2.68,2.68s1.202,2.68,2.68,2.68s2.68-1.202,2.68-2.68
	S330.064,84.012,328.587,84.012z"/>
<rect x="331.268" y="42.244" fill="#660000" width="3.566" height="11.924"/>
<g>
	<circle fill="#660000" cx="333.051" cy="57.25" r="4.394"/>
	<path fill="#660000" d="M333.051,63.427c-3.405,0-6.177-2.771-6.177-6.177s2.771-6.177,6.177-6.177
		c3.406,0,6.178,2.771,6.178,6.177S336.457,63.427,333.051,63.427z M333.051,54.639c-1.439,0-2.61,1.171-2.61,2.611
		s1.171,2.611,2.61,2.611c1.44,0,2.611-1.171,2.611-2.611S334.491,54.639,333.051,54.639z"/>
</g>
<rect x="360.026" y="49.296" fill="#660000" width="3.566" height="53.785"/>
<path fill="#660000" d="M361.81,112.526c-3.445,0-6.249-2.803-6.249-6.249s2.804-6.248,6.249-6.248s6.248,2.803,6.248,6.248
	S365.255,112.526,361.81,112.526z M361.81,103.596c-1.479,0-2.683,1.203-2.683,2.682c0,1.479,1.203,2.682,2.683,2.682
	c1.479,0,2.682-1.203,2.682-2.682C364.491,104.799,363.288,103.596,361.81,103.596z"/>
<polygon fill="#660000" points="400.738,149.618 377.183,126.068 377.183,53.521 380.749,53.521 380.749,124.59 403.26,147.096 "/>
<g>
	<path fill="#660000" d="M403.055,143.971c2.422,0,4.384,1.963,4.384,4.386c0,2.422-1.962,4.386-4.384,4.386
		c-2.425,0-4.388-1.964-4.388-4.386C398.667,145.934,400.629,143.971,403.055,143.971z"/>
	<path fill="#660000" d="M403.055,154.526c-3.402,0-6.171-2.768-6.171-6.169s2.769-6.169,6.171-6.169c3.4,0,6.167,2.768,6.167,6.169
		S406.455,154.526,403.055,154.526z M403.055,145.754c-1.437,0-2.604,1.167-2.604,2.603s1.168,2.603,2.604,2.603
		c1.434,0,2.601-1.167,2.601-2.603S404.488,145.754,403.055,145.754z"/>
</g>
<polygon fill="#660000" points="405.43,94.993 395.461,83.872 395.461,56.386 399.027,56.386 399.027,82.508 408.085,92.613 "/>
<polygon fill="#660000" points="415.274,125.438 413.55,122.316 440.566,107.393 440.566,79.744 444.133,79.744 444.133,109.497 "/>
<g>
	<circle fill="#660000" cx="411.146" cy="128.272" r="4.387"/>
	<path fill="#660000" d="M411.146,134.442c-3.402,0-6.171-2.768-6.171-6.17s2.769-6.17,6.171-6.17s6.17,2.768,6.17,6.17
		S414.548,134.442,411.146,134.442z M411.146,125.668c-1.437,0-2.604,1.168-2.604,2.604s1.168,2.604,2.604,2.604
		c1.436,0,2.604-1.168,2.604-2.604S412.581,125.668,411.146,125.668z"/>
</g>
<path fill="#660000" d="M409.028,101.871c-3.446,0-6.249-2.803-6.249-6.249s2.803-6.25,6.249-6.25c3.445,0,6.249,2.804,6.249,6.25
	S412.474,101.871,409.028,101.871z M409.028,92.939c-1.479,0-2.683,1.204-2.683,2.683s1.203,2.683,2.683,2.683
	s2.683-1.203,2.683-2.683S410.508,92.939,409.028,92.939z"/>
</svg>
