<?xml version="1.0" encoding="utf-8"?>
<!-- Generator: Adobe Illustrator 16.0.0, SVG Export Plug-In . SVG Version: 6.00 Build 0)  -->
<!DOCTYPE svg PUBLIC "-//W3C//DTD SVG 1.1//EN" "http://www.w3.org/Graphics/SVG/1.1/DTD/svg11.dtd">
<svg version="1.1" id="Layer_1" xmlns="http://www.w3.org/2000/svg" xmlns:xlink="http://www.w3.org/1999/xlink" x="0px" y="0px"
	 width="600.547px" height="538.317px" viewBox="-290.453 -269.437 600.547 538.317"
	 enable-background="new -290.453 -269.437 600.547 538.317" xml:space="preserve">
<g>
	<text transform="matrix(1 0 0 1 -228.5508 -23.8599)" fill="#660000" font-family="'KannadaSangamMN'" font-size="213.9673">A</text>
	<path fill="none" stroke="#660000" stroke-width="14.2646" stroke-miterlimit="10" d="M209.614,112.125
		c180.594-4.61,23.405-461.363-353.121-324.96c-73.549,31.054-111.141,84.987-120.947,151.557
		C-270.104,19.55-210.37,59.676-149.448,47.49c-3.565,18.428,4.458,41.016,21.396,48.145
		c16.049,52.598,75.665,45.169,117.683,35.883c0,0,23.625,28.528,47.257,33.103c20.722,16.601,55.269,66.526,55.269,66.526
		l25.855-16.049c0,0-27.43-33.781-23.848-44.52C138.072,175.281,209.169,157.595,209.614,112.125z"/>
	<text transform="matrix(1 0 0 1 -100.7666 23.4204)" fill="#660000" font-family="'KannadaSangamMN'" font-size="213.9673">A</text>
	<text transform="matrix(1 0 0 1 45.4487 64.4292)" fill="#660000" font-family="'KannadaSangamMN'" font-size="213.9673">I</text>
	<text transform="matrix(1 0 0 1 91.209 104.2495)" fill="#660000" font-family="'KannadaSangamMN'" font-size="213.9673">S</text>
	
		<line fill="none" stroke="#660000" stroke-width="3.5661" stroke-miterlimit="10" x1="9.821" y1="-237.754" x2="9.821" y2="-199.454"/>
	<circle fill="none" stroke="#660000" stroke-width="3.5661" stroke-miterlimit="10" cx="9.821" cy="-195.908" r="4.465"/>
	<polyline fill="none" stroke="#660000" stroke-width="3.5661" stroke-miterlimit="10" points="26.74,-234.229 26.74,-168.141 
		46.354,-148.528 	"/>
	<path fill="#660000" stroke="#660000" stroke-width="3.5661" stroke-miterlimit="10" d="M49.838-149.419
		c2.421,0,4.384,1.967,4.384,4.393c0,2.429-1.963,4.396-4.384,4.396c-2.433,0-4.397-1.967-4.397-4.396
		C45.44-147.453,47.405-149.419,49.838-149.419z"/>
	<polyline fill="none" stroke="#660000" stroke-width="3.5661" stroke-miterlimit="10" points="60.171,-225.091 60.171,-205.817 
		40.776,-186.414 	"/>
	<circle fill="none" stroke="#660000" stroke-width="3.5661" stroke-miterlimit="10" cx="38.128" cy="-184.768" r="4.463"/>
	
		<line fill="none" stroke="#660000" stroke-width="3.5661" stroke-miterlimit="10" x1="42.592" y1="-229.216" x2="42.592" y2="-217.292"/>
	<circle fill="#660000" stroke="#660000" stroke-width="3.5661" stroke-miterlimit="10" cx="42.592" cy="-214.21" r="4.394"/>
	
		<line fill="none" stroke="#660000" stroke-width="3.5661" stroke-miterlimit="10" x1="71.35" y1="-222.164" x2="71.35" y2="-168.379"/>
	<circle fill="none" stroke="#660000" stroke-width="3.5661" stroke-miterlimit="10" cx="71.35" cy="-165.182" r="4.465"/>
	<polyline fill="none" stroke="#660000" stroke-width="3.5661" stroke-miterlimit="10" points="88.507,-217.939 88.507,-146.131 
		111.54,-123.103 	"/>
	<path fill="#660000" stroke="#660000" stroke-width="3.5661" stroke-miterlimit="10" d="M112.595-127.489
		c2.422,0,4.384,1.963,4.384,4.386c0,2.422-1.962,4.386-4.384,4.386c-2.424,0-4.387-1.964-4.387-4.386
		C108.208-125.526,110.17-127.489,112.595-127.489z"/>
	<polyline fill="none" stroke="#660000" stroke-width="3.5661" stroke-miterlimit="10" points="106.785,-215.074 106.785,-188.27 
		116.298,-177.657 	"/>
	<polyline fill="none" stroke="#660000" stroke-width="3.5661" stroke-miterlimit="10" points="151.89,-191.716 151.89,-163.015 
		123.953,-147.583 	"/>
	<circle fill="#660000" stroke="#660000" stroke-width="3.5661" stroke-miterlimit="10" cx="120.686" cy="-143.188" r="4.387"/>
	<circle fill="none" stroke="#660000" stroke-width="3.5661" stroke-miterlimit="10" cx="118.569" cy="-175.838" r="4.466"/>
</g>
</svg>
