<?xml version="1.0" encoding="utf-8"?>
<!-- Generator: Adobe Illustrator 16.0.0, SVG Export Plug-In . SVG Version: 6.00 Build 0)  -->
<!DOCTYPE svg PUBLIC "-//W3C//DTD SVG 1.1//EN" "http://www.w3.org/Graphics/SVG/1.1/DTD/svg11.dtd">
<svg version="1.1" id="Layer_1" xmlns="http://www.w3.org/2000/svg" xmlns:xlink="http://www.w3.org/1999/xlink" x="0px" y="0px"
	 width="612px" height="792px" viewBox="0 0 612 792" enable-background="new 0 0 612 792" xml:space="preserve">
<g>
	<g>
		<g>
			<g>
				<path fill="#58BC75" d="M731.711,211.726c0.108-0.62,0.438-0.946,0.959-1.441c14.345-13.598,33.722-21.935,55.043-21.935
					c21.324,0,40.7,8.337,55.043,21.935c0.524,0.495,0.854,0.821,0.961,1.441c0.105,0.623-0.672,1.325-0.672,1.325l-11.314,11.316
					c-11.264-11.266-26.828-18.232-44.018-18.232c-17.188,0-32.75,6.967-44.016,18.232l-11.313-11.316
					C732.384,213.051,731.604,212.349,731.711,211.726z"/>
				<path fill="#58BC75" d="M787.713,170.565c-26.608,0-50.735,10.624-68.37,27.863c-0.268,0.26-0.533,0.524-0.796,0.788
					l-0.696-0.699l-10.168-10.167c0,0-0.688-0.528-0.75-1.563c-0.064-1.035,0.343-1.436,1.009-2.07
					c20.743-19.788,48.84-31.937,79.771-31.937"/>
			</g>
		</g>
		<g>
			<g>
				<path fill="#58BC75" d="M731.711,211.726c0.108-0.62,0.438-0.946,0.959-1.441c14.345-13.598,33.722-21.935,55.043-21.935
					c21.324,0,40.7,8.337,55.043,21.935c0.524,0.495,0.854,0.821,0.961,1.441c0.105,0.623-0.672,1.325-0.672,1.325l-11.314,11.316
					c-11.264-11.266-26.828-18.232-44.018-18.232c-17.188,0-32.75,6.967-44.016,18.232l-11.313-11.316
					C732.384,213.051,731.604,212.349,731.711,211.726z"/>
				<path fill="#58BC75" d="M707.941,184.717c20.743-19.788,48.84-31.937,79.771-31.937c30.935,0,59.03,12.149,79.775,31.937
					c0.664,0.634,1.073,1.035,1.009,2.07c-0.065,1.035-0.751,1.563-0.751,1.563l-10.168,10.167l-0.697,0.699
					c-0.264-0.264-0.527-0.528-0.795-0.788c-17.636-17.239-41.762-27.863-68.373-27.863c-26.608,0-50.735,10.624-68.37,27.863
					c-0.268,0.26-0.533,0.524-0.796,0.788l-0.696-0.699l-10.168-10.167c0,0-0.688-0.528-0.75-1.563
					C706.868,185.751,707.275,185.351,707.941,184.717z"/>
			</g>
		</g>
		<path fill="#58BC75" d="M835.825,140.924c-3.451-2.177-6.929-4.314-10.507-6.21c-3.497-1.854-7.322-3.394-11.326-3.527
			c-5.178-0.172-11.046-0.18-19.692-0.53c-14.672-0.315-28.946,0.015-46.124,8.333c-2.669,1.292-15.617,5.656-17.608,6.214
			c-1.103,0.31-7.393,1.969-8.455,2.32c-4.787,1.583-15.622,21.204-21.847,19.49c-1.571-0.432-2.362-0.468-3.868-2.047
			c-0.647-0.679,19.336-24.26,19.336-24.26c8.532-6.239,14.52-8.359,18.756-12.671c4.234-4.312,12.317-19.152,12.317-19.152
			c-6.846-5.059-10.028-16.22-10.028-16.22c5.581-4.499,11.775-1.167,15.991,2.421c2.177-2.7,3.099-3.612,4.246-4.036
			c1.049-0.387,14.951-1.515,26.265,0.978c19.444,4.284,36.687,10.365,47.319,2.826c2.111-1.497-4.36-5.848-15.353-17.331
			c-4.662-4.87,0.695-22.395,1.798-23.154c1.102-0.758,9.032,1.624,11.854,4.684c2.822,3.059,3.267,3.335,6.258,8.811
			c2.99,5.477,3.456,16.367,3.391,17.971c-0.036,0.904,0.412,7.743,0.24,8.773c7.175,4.784,16.274,8.965,21.113,16.417
			c1.821,2.805,1.963,5.544,1.753,8.751c-0.556,8.508-16.705,1.542-20.301,0.18c-2.312-0.876-4.909-2.944-7.499-2.042
			c-2.116,0.738-4.47,3.383-6.212,4.811c6.312,8.554,15.595,13.684,24.537,19.047c3.229,1.937,6.481,3.833,9.773,5.663
			c4.569,2.54,9.347,7.41,12.256,11.791c0,0-5.705,3.703-11.585-0.753c-5.977-4.528-12.32-8.543-18.708-12.458
			C841.212,144.356,838.527,142.628,835.825,140.924z"/>
	</g>
	<g>
		<path fill="#39B7C4" d="M696.492,279.299h11.473v1.484c0,0.765-0.405,1.17-1.26,1.214l-6.793,0.495
			c1.664,2.295,2.609,5.174,2.609,8.414c0,8.592-6.478,14.306-15.926,14.306c-2.564,0-4.904-0.405-7.019-1.17
			c-2.519,1.438-4.048,3.6-4.048,5.443c0,10.393,31.626-1.08,31.626,15.026c0,7.377-7.738,14.261-20.155,14.261
			c-12.551,0-19.074-5.534-19.074-11.968c0-4.724,3.329-8.232,8.771-10.077c-3.013-1.034-4.902-2.789-4.902-6.208
			c0-2.52,1.979-5.668,5.533-7.558c-4.274-2.475-6.748-6.613-6.748-12.056c0-8.594,6.389-14.352,16.016-14.352
			C690.509,276.555,693.839,277.545,696.492,279.299z M679.622,317.447c-4.588,1.799-7.872,4.634-7.872,8.862
			c0,5.219,5.488,9.268,15.295,9.268c9.133,0,16.151-4.318,16.151-10.481C703.196,316.593,688.89,319.067,679.622,317.447z
			 M698.607,290.995c0-6.747-4.453-11.291-12.012-11.291c-7.603,0-12.057,4.544-12.057,11.291c0,6.658,4.454,11.292,12.057,11.292
			C694.333,302.287,698.607,297.653,698.607,290.995z"/>
		<path fill="#39B7C4" d="M750.07,299.678c0,13.99-7.514,22.989-20.379,22.989c-12.867,0-20.426-8.999-20.426-22.989
			c0-13.991,7.559-23.078,20.426-23.078C742.557,276.6,750.07,285.687,750.07,299.678z M745.661,299.678
			c0-11.922-5.309-19.704-15.97-19.704c-10.618,0-16.017,7.782-16.017,19.704c0,12.012,5.398,19.613,16.017,19.613
			C740.353,319.291,745.661,311.689,745.661,299.678z"/>
		<path fill="#58BC75" d="M758.925,275.924h8.818c1.664,0,2.879,0.855,3.194,2.069l6.612,24.654c0.72,2.698,1.124,5.263,1.53,7.827
			c0.675-2.564,1.395-5.129,2.249-7.827l7.647-24.743c0.36-1.215,1.53-2.07,2.968-2.07h4.906c1.617,0,2.744,0.855,3.103,2.07
			l7.559,25.193c0.765,2.563,1.395,4.947,1.979,7.422c0.405-2.564,0.9-5.129,1.665-7.872l6.839-24.654
			c0.313-1.214,1.574-2.069,3.059-2.069h8.412l-14.621,46.157h-8.951c-0.945,0-1.665-0.674-2.071-1.979l-8.322-26.678
			c-0.539-1.755-0.99-3.509-1.304-5.264c-0.36,1.8-0.765,3.554-1.304,5.354l-8.413,26.588c-0.405,1.305-1.215,1.979-2.43,1.979
			h-8.503L758.925,275.924z"/>
		<path fill="#58BC75" d="M842.01,269.446c-3.824,0-7.018-3.194-7.018-6.973c0-3.959,3.193-7.108,7.018-7.108
			c3.914,0,7.198,3.149,7.198,7.108C849.208,266.252,845.924,269.446,842.01,269.446z"/>
		<rect x="836.432" y="275.924" fill="#58BC75" width="11.111" height="46.157"/>
		<path fill="#58BC75" d="M862.072,322.081v-37.789l-4.004-0.629c-1.754-0.315-2.879-1.171-2.879-2.79v-4.544h6.883v-3.418
			c0-10.573,6.568-17.006,17.23-17.006c2.114,0,4.094,0.27,5.938,0.854l-0.227,5.578c-0.134,1.755-1.844,1.936-3.823,1.936
			c-5.264,0-8.367,2.114-8.367,8.997v3.059h12.012v7.919h-11.652v37.833H862.072z"/>
		<path fill="#58BC75" d="M897.925,269.446c-3.824,0-7.018-3.194-7.018-6.973c0-3.959,3.193-7.108,7.018-7.108
			c3.914,0,7.198,3.149,7.198,7.108C905.123,266.252,901.839,269.446,897.925,269.446z M903.458,275.924v46.157h-11.111v-46.157
			H903.458z"/>
	</g>
	<g>
		<path fill="#39B7C4" d="M913.069,315.048h-2.603v-0.939h6.335v0.939h-2.615v7.617h-1.117V315.048z"/>
		<path fill="#39B7C4" d="M924.966,318.907c-0.063-1.193-0.14-2.628-0.127-3.694h-0.038c-0.292,1.003-0.647,2.069-1.079,3.25
			l-1.511,4.151h-0.838l-1.384-4.075c-0.406-1.206-0.749-2.311-0.99-3.326h-0.025c-0.025,1.066-0.089,2.501-0.165,3.783
			l-0.229,3.669h-1.054l0.597-8.557h1.409l1.46,4.139c0.355,1.054,0.647,1.993,0.863,2.882h0.038
			c0.216-0.863,0.521-1.803,0.901-2.882l1.523-4.139h1.409l0.533,8.557h-1.079L924.966,318.907z"/>
	</g>
</g>
<g>
	<g>
		<g>
			<path fill="#191919" d="M-129.703,388.186c0.04-0.23,0.162-0.352,0.356-0.536c5.33-5.053,12.53-8.149,20.452-8.149
				c7.923,0,15.123,3.097,20.452,8.149c0.195,0.185,0.317,0.306,0.357,0.536c0.04,0.231-0.25,0.492-0.25,0.492l-4.204,4.205
				c-4.185-4.187-9.968-6.774-16.355-6.774c-6.386,0-12.169,2.588-16.354,6.774l-4.204-4.205
				C-129.454,388.678-129.743,388.417-129.703,388.186z"/>
			<path fill="#191919" d="M-108.896,372.892c-9.887,0-18.851,3.947-25.404,10.354c-0.099,0.096-0.198,0.194-0.295,0.292
				l-0.259-0.26l-3.778-3.777c0,0-0.256-0.196-0.279-0.581c-0.024-0.384,0.128-0.533,0.375-0.769
				c7.707-7.353,18.146-11.866,29.64-11.866"/>
		</g>
	</g>
	<g>
		<g>
			<path fill="#191919" d="M-129.703,388.186c0.04-0.23,0.162-0.352,0.356-0.536c5.33-5.053,12.53-8.149,20.452-8.149
				c7.923,0,15.123,3.097,20.452,8.149c0.195,0.185,0.317,0.306,0.357,0.536c0.04,0.231-0.25,0.492-0.25,0.492l-4.204,4.205
				c-4.185-4.187-9.968-6.774-16.355-6.774c-6.386,0-12.169,2.588-16.354,6.774l-4.204-4.205
				C-129.454,388.678-129.743,388.417-129.703,388.186z"/>
			<path fill="#191919" d="M-138.535,378.15c7.707-7.353,18.146-11.866,29.64-11.866c11.494,0,21.934,4.514,29.642,11.866
				c0.247,0.235,0.399,0.385,0.375,0.769c-0.024,0.385-0.279,0.581-0.279,0.581l-3.778,3.777l-0.259,0.26
				c-0.098-0.098-0.196-0.196-0.295-0.292c-6.553-6.406-15.517-10.354-25.405-10.354c-9.887,0-18.851,3.947-25.404,10.354
				c-0.099,0.096-0.198,0.194-0.295,0.292l-0.259-0.26l-3.778-3.777c0,0-0.256-0.196-0.279-0.581
				C-138.935,378.535-138.783,378.386-138.535,378.15z"/>
		</g>
	</g>
	<path fill="#191919" d="M-91.019,361.878c-1.283-0.809-2.574-1.603-3.904-2.308c-1.299-0.688-2.72-1.261-4.208-1.311
		c-1.924-0.063-4.104-0.066-7.317-0.196c-5.451-0.117-10.755,0.005-17.138,3.096c-0.992,0.479-5.803,2.102-6.542,2.31
		c-0.41,0.115-2.747,0.731-3.142,0.861c-1.779,0.588-5.805,7.879-8.118,7.242c-0.584-0.161-0.877-0.174-1.437-0.762
		c-0.241-0.252,7.185-9.014,7.185-9.014c3.17-2.317,5.395-3.106,6.969-4.708c1.573-1.602,4.577-7.116,4.577-7.116
		c-2.543-1.879-3.726-6.026-3.726-6.026c2.074-1.672,4.375-0.435,5.942,0.899c0.809-1.004,1.151-1.342,1.578-1.499
		c0.389-0.145,5.555-0.563,9.759,0.363c7.225,1.592,13.632,3.851,17.583,1.049c0.784-0.556-1.621-2.173-5.705-6.438
		c-1.732-1.81,0.258-8.321,0.668-8.604c0.409-0.281,3.356,0.604,4.404,1.74c1.049,1.137,1.214,1.239,2.325,3.274
		c1.111,2.035,1.284,6.081,1.26,6.678c-0.014,0.335,0.153,2.876,0.089,3.259c2.666,1.778,6.047,3.331,7.845,6.101
		c0.677,1.042,0.729,2.06,0.651,3.251c-0.207,3.162-6.207,0.573-7.543,0.067c-0.859-0.325-1.824-1.094-2.787-0.759
		c-0.786,0.274-1.661,1.257-2.308,1.787c2.346,3.179,5.795,5.085,9.117,7.077c1.2,0.721,2.408,1.425,3.631,2.104
		c1.698,0.944,3.473,2.753,4.554,4.381c0,0-2.12,1.376-4.305-0.279c-2.221-1.683-4.578-3.175-6.951-4.63
		C-89.017,363.153-90.015,362.512-91.019,361.878z"/>
</g>
<g>
	<path fill="#191919" d="M-142.79,413.293h4.263v0.552c0,0.284-0.151,0.436-0.468,0.451l-2.524,0.184
		c0.619,0.853,0.97,1.923,0.97,3.127c0,3.192-2.407,5.314-5.917,5.314c-0.953,0-1.822-0.15-2.608-0.435
		c-0.936,0.535-1.504,1.338-1.504,2.022c0,3.862,11.751-0.401,11.751,5.584c0,2.741-2.875,5.298-7.489,5.298
		c-4.664,0-7.087-2.056-7.087-4.446c0-1.755,1.237-3.059,3.259-3.744c-1.119-0.384-1.821-1.036-1.821-2.307
		c0-0.937,0.735-2.105,2.056-2.809c-1.588-0.919-2.507-2.457-2.507-4.479c0-3.193,2.374-5.333,5.951-5.333
		C-145.013,412.273-143.775,412.642-142.79,413.293z M-149.058,427.468c-1.705,0.668-2.925,1.722-2.925,3.293
		c0,1.938,2.039,3.443,5.684,3.443c3.393,0,6-1.604,6-3.895C-140.299,427.15-145.614,428.069-149.058,427.468z M-142.003,417.639
		c0-2.507-1.655-4.195-4.463-4.195c-2.825,0-4.479,1.688-4.479,4.195c0,2.475,1.655,4.196,4.479,4.196
		C-143.592,421.835-142.003,420.113-142.003,417.639z"/>
	<path fill="#191919" d="M-122.882,420.865c0,5.198-2.792,8.542-7.572,8.542c-4.781,0-7.589-3.344-7.589-8.542
		c0-5.199,2.809-8.574,7.589-8.574C-125.674,412.291-122.882,415.666-122.882,420.865z M-124.52,420.865
		c0-4.43-1.973-7.321-5.934-7.321c-3.945,0-5.951,2.892-5.951,7.321c0,4.463,2.006,7.288,5.951,7.288
		C-126.493,428.153-124.52,425.328-124.52,420.865z"/>
	<path fill="#191919" d="M-119.592,412.04h3.276c0.619,0,1.069,0.317,1.187,0.768l2.457,9.16c0.267,1.004,0.417,1.956,0.568,2.909
		c0.25-0.953,0.518-1.905,0.835-2.909l2.842-9.193c0.134-0.45,0.568-0.769,1.103-0.769h1.822c0.601,0,1.02,0.318,1.153,0.769
		l2.809,9.361c0.284,0.952,0.518,1.839,0.735,2.758c0.151-0.952,0.335-1.905,0.619-2.926l2.541-9.16
		c0.116-0.45,0.585-0.768,1.137-0.768h3.125l-5.433,17.149h-3.326c-0.351,0-0.618-0.251-0.77-0.735l-3.092-9.913
		c-0.2-0.651-0.368-1.303-0.484-1.955c-0.134,0.669-0.284,1.32-0.484,1.988l-3.126,9.88c-0.151,0.484-0.451,0.735-0.903,0.735h-3.16
		L-119.592,412.04z"/>
	<path fill="#191919" d="M-88.721,409.632c-1.421,0-2.607-1.187-2.607-2.591c0-1.471,1.187-2.64,2.607-2.64
		c1.455,0,2.675,1.169,2.675,2.64C-86.046,408.445-87.266,409.632-88.721,409.632z"/>
	<rect x="-90.793" y="412.04" fill="#191919" width="4.128" height="17.149"/>
	<path fill="#191919" d="M-81.266,429.189v-14.042l-1.488-0.232c-0.651-0.117-1.07-0.436-1.07-1.037v-1.688h2.558v-1.27
		c0-3.929,2.44-6.319,6.402-6.319c0.786,0,1.521,0.101,2.207,0.318l-0.084,2.072c-0.05,0.652-0.685,0.72-1.421,0.72
		c-1.955,0-3.108,0.785-3.108,3.342v1.137h4.463v2.942h-4.33v14.058H-81.266z"/>
	<path fill="#191919" d="M-67.945,409.632c-1.421,0-2.607-1.187-2.607-2.591c0-1.471,1.187-2.64,2.607-2.64
		c1.455,0,2.675,1.169,2.675,2.64C-65.27,408.445-66.49,409.632-67.945,409.632z M-65.889,412.04v17.149h-4.129V412.04H-65.889z"/>
</g>
<text transform="matrix(1 0 0 1 -63.2798 429.4062)" fill="#191919" font-family="'MyriadPro-Regular'" font-size="4.7179">TM</text>
<g>
	<g>
		<g>
			<path fill="#58BC75" d="M736.288,516.672c0.037-0.214,0.15-0.327,0.331-0.498c4.956-4.697,11.65-7.578,19.017-7.578
				c7.367,0,14.061,2.881,19.016,7.578c0.182,0.171,0.295,0.284,0.332,0.498c0.037,0.215-0.232,0.458-0.232,0.458l-3.908,3.909
				c-3.892-3.893-9.269-6.299-15.207-6.299c-5.938,0-11.314,2.406-15.207,6.299l-3.908-3.909
				C736.521,517.13,736.251,516.887,736.288,516.672z"/>
			<path fill="#58BC75" d="M755.636,502.451c-9.193,0-17.527,3.671-23.62,9.626c-0.093,0.09-0.185,0.182-0.275,0.273l-0.239-0.242
				l-3.514-3.513c0,0-0.238-0.183-0.26-0.54s0.119-0.496,0.349-0.715c7.167-6.836,16.873-11.034,27.56-11.034"/>
		</g>
	</g>
	<g>
		<g>
			<path fill="#58BC75" d="M736.288,516.672c0.037-0.214,0.15-0.327,0.331-0.498c4.956-4.697,11.65-7.578,19.017-7.578
				c7.367,0,14.061,2.881,19.016,7.578c0.182,0.171,0.295,0.284,0.332,0.498c0.037,0.215-0.232,0.458-0.232,0.458l-3.908,3.909
				c-3.892-3.893-9.269-6.299-15.207-6.299c-5.938,0-11.314,2.406-15.207,6.299l-3.908-3.909
				C736.521,517.13,736.251,516.887,736.288,516.672z"/>
			<path fill="#58BC75" d="M728.076,507.341c7.167-6.836,16.873-11.034,27.56-11.034c10.688,0,20.394,4.198,27.561,11.034
				c0.229,0.219,0.371,0.357,0.348,0.715c-0.021,0.357-0.258,0.54-0.258,0.54l-3.514,3.513l-0.24,0.242
				c-0.092-0.092-0.184-0.184-0.275-0.273c-6.093-5.955-14.428-9.626-23.621-9.626s-17.527,3.671-23.62,9.626
				c-0.093,0.09-0.185,0.182-0.275,0.273l-0.239-0.242l-3.514-3.513c0,0-0.238-0.183-0.26-0.54S727.847,507.56,728.076,507.341z"/>
		</g>
	</g>
	<path fill="#58BC75" d="M772.257,492.211c-1.191-0.752-2.394-1.49-3.629-2.146c-1.209-0.64-2.53-1.173-3.914-1.218
		c-1.788-0.061-3.815-0.062-6.803-0.184c-5.068-0.109-10,0.006-15.935,2.879c-0.922,0.445-5.396,1.954-6.083,2.146
		c-0.382,0.107-2.555,0.681-2.922,0.801c-1.653,0.548-5.396,7.326-7.547,6.734c-0.543-0.149-0.816-0.162-1.336-0.707
		c-0.225-0.234,6.68-8.382,6.68-8.382c2.947-2.155,5.016-2.888,6.479-4.377c1.464-1.49,4.256-6.617,4.256-6.617
		c-2.364-1.747-3.464-5.604-3.464-5.604c1.929-1.554,4.067-0.403,5.524,0.837c0.752-0.934,1.07-1.248,1.467-1.395
		c0.362-0.134,5.166-0.523,9.074,0.338c6.717,1.479,12.674,3.58,16.348,0.976c0.729-0.517-1.506-2.021-5.305-5.987
		c-1.609-1.683,0.24-7.736,0.621-7.998c0.381-0.263,3.121,0.561,4.096,1.617s1.129,1.152,2.162,3.045
		c1.033,1.892,1.193,5.653,1.172,6.208c-0.014,0.312,0.142,2.675,0.082,3.031c2.479,1.652,5.622,3.097,7.295,5.671
		c0.629,0.969,0.678,1.916,0.605,3.023c-0.192,2.939-5.771,0.533-7.014,0.062c-0.799-0.303-1.696-1.018-2.591-0.705
		c-0.731,0.254-1.544,1.168-2.146,1.662c2.182,2.955,5.388,4.727,8.478,6.58c1.115,0.669,2.238,1.324,3.376,1.956
		c1.579,0.878,3.229,2.56,4.234,4.073c0,0-1.972,1.279-4.003-0.26c-2.064-1.564-4.256-2.951-6.463-4.305
		C774.118,493.397,773.19,492.801,772.257,492.211z"/>
</g>
<g>
	<path fill="#39B7C4" d="M808.429,488.3h3.963v0.513c0,0.264-0.14,0.404-0.435,0.42l-2.347,0.17c0.575,0.793,0.9,1.788,0.9,2.907
		c0,2.968-2.236,4.942-5.502,4.942c-0.885,0-1.693-0.141-2.424-0.404c-0.87,0.497-1.398,1.244-1.398,1.881
		c0,3.59,10.926-0.373,10.926,5.191c0,2.548-2.674,4.926-6.963,4.926c-4.336,0-6.59-1.912-6.59-4.134c0-1.632,1.15-2.845,3.03-3.481
		c-1.04-0.357-1.693-0.964-1.693-2.145c0-0.871,0.684-1.959,1.911-2.611c-1.477-0.855-2.331-2.285-2.331-4.165
		c0-2.969,2.208-4.958,5.532-4.958C806.362,487.352,807.512,487.693,808.429,488.3z M802.601,501.479
		c-1.585,0.621-2.72,1.602-2.72,3.062c0,1.803,1.896,3.202,5.284,3.202c3.154,0,5.58-1.493,5.58-3.622
		C810.745,501.184,805.802,502.039,802.601,501.479z M809.159,492.34c0-2.33-1.538-3.9-4.15-3.9c-2.625,0-4.164,1.57-4.164,3.9
		c0,2.301,1.539,3.902,4.164,3.902C807.683,496.242,809.159,494.641,809.159,492.34z"/>
	<path fill="#39B7C4" d="M826.938,495.34c0,4.834-2.596,7.942-7.041,7.942c-4.444,0-7.056-3.108-7.056-7.942
		s2.611-7.973,7.056-7.973C824.343,487.367,826.938,490.506,826.938,495.34z M825.415,495.34c0-4.119-1.834-6.807-5.518-6.807
		c-3.668,0-5.533,2.688-5.533,6.807c0,4.15,1.865,6.775,5.533,6.775C823.581,502.115,825.415,499.49,825.415,495.34z"/>
	<path fill="#58BC75" d="M829.997,487.134h3.047c0.575,0,0.994,0.295,1.104,0.715l2.285,8.517c0.248,0.933,0.388,1.818,0.527,2.705
		c0.234-0.887,0.482-1.772,0.777-2.705l2.643-8.547c0.125-0.42,0.529-0.716,1.025-0.716h1.695c0.559,0,0.947,0.296,1.072,0.716
		l2.61,8.703c0.265,0.886,0.481,1.709,0.684,2.564c0.14-0.887,0.312-1.771,0.575-2.721l2.362-8.517
		c0.108-0.42,0.544-0.715,1.058-0.715h2.906l-5.052,15.946h-3.093c-0.326,0-0.575-0.233-0.715-0.684l-2.875-9.217
		c-0.187-0.606-0.342-1.212-0.451-1.818c-0.125,0.621-0.264,1.229-0.451,1.85l-2.906,9.186c-0.14,0.45-0.419,0.684-0.839,0.684
		h-2.938L829.997,487.134z"/>
	<path fill="#58BC75" d="M858.702,484.896c-1.322,0-2.426-1.103-2.426-2.409c0-1.367,1.104-2.455,2.426-2.455
		c1.352,0,2.486,1.088,2.486,2.455C861.188,483.793,860.054,484.896,858.702,484.896z"/>
	<rect x="856.774" y="487.134" fill="#58BC75" width="3.839" height="15.946"/>
	<path fill="#58BC75" d="M865.632,503.08v-13.055l-1.383-0.219c-0.605-0.108-0.994-0.404-0.994-0.963v-1.57h2.377v-1.182
		c0-3.651,2.27-5.874,5.953-5.874c0.73,0,1.416,0.093,2.051,0.295l-0.076,1.928c-0.047,0.605-0.639,0.668-1.32,0.668
		c-1.82,0-2.893,0.73-2.893,3.108v1.057h4.15v2.736h-4.025v13.07H865.632z"/>
	<path fill="#58BC75" d="M878.019,484.896c-1.32,0-2.424-1.103-2.424-2.409c0-1.367,1.104-2.455,2.424-2.455
		c1.354,0,2.488,1.088,2.488,2.455C880.507,483.793,879.372,484.896,878.019,484.896z M879.931,487.134v15.946h-3.84v-15.946
		H879.931z"/>
</g>
<line fill="none" stroke="#F26522" stroke-miterlimit="10" x1="90.712" y1="408" x2="521.287" y2="408"/>
<line fill="none" stroke="#F26522" stroke-miterlimit="10" x1="90.712" y1="649" x2="521.287" y2="649"/>
<rect x="197.588" y="706.648" fill="#F26522" width="36.703" height="36.702"/>
<rect x="248.424" y="706.648" fill="#414042" width="36.702" height="36.702"/>
<text transform="matrix(1 0 0 1 317.2812 717)"><tspan x="0" y="0" fill="#F26522" font-family="'Futura-Medium'" font-size="12">DESIGNER:</tspan><tspan x="0" y="14.4" fill="#F26522" font-family="'Futura-Medium'" font-size="12">KADE KEITH</tspan></text>
<rect x="-1265.317" y="112.477" fill="#E6E7E8" width="594" height="591.047"/>
<text transform="matrix(1 0 0 1 122.9966 309.8584)" fill="#414042" font-family="'MyriadPro-BoldCondIt'" font-size="160.3839">IGN  </text>
<g>
	<path fill="#F26522" d="M361.494,197.394c1.059,3.07-8.984,73.452-16.122,96.968c-1.115,3.675-6.102,14.099-6.102,14.099
		l-0.154-14.584l-9.979,26.71l4.913-45.592l-8.471,20.877c0,0-0.235-7.792,0-10.374c2.118-23.288,16.438-89.611,18.561-91.673
		C346.124,191.891,360.764,195.274,361.494,197.394z"/>
</g>
<text transform="matrix(1 0 0 1 361.501 309.8584)" fill="#414042" font-family="'MyriadPro-BoldCondIt'" font-size="160.3839">TE</text>
<text transform="matrix(1 0 0 1 148.7759 184.1597)" fill="#F26522" font-family="'MyriadPro-Cond'" font-size="31.7927">Apollo Labs </text>
<g>
	<path fill="#414042" d="M364.583,184.995l-17.891-3.561c-1.921-0.38,4.379-8.261,5.383-11.1c0.651-1.847,2.758-3.067,4.675-2.686
		l3.816,0.761c1.922,0.382,3.398,2.314,3.293,4.27C363.701,175.686,366.503,185.378,364.583,184.995z"/>
	<path fill="#1A1A1A" d="M381.243,132.567c1.856-7.217,3.739-15.617,5.675-25.265c6.605-32.97-2.208-62.991-2.293-63.286
		l-0.546-1.828l-1.211,1.472c-0.193,0.245-19.851,24.557-26.459,57.528c-2.014,10.05-3.548,18.496-4.646,25.766l-18.158,22.408
		l-5.588,27.873l23.852-26.061l-0.002-0.395c-0.001-7.555,0.213-10.174,1.927-23.361l0.292-2.231
		c1.065-6.754,2.484-14.515,4.304-23.599c5.193-25.925,17.617-45.06,22.898-52.378c-0.66,5.841-2.144,17.701-4.427,31.834
		c-6.029-1.061-11.832,2.875-13.031,8.911c-1.22,6.118,2.754,12.066,8.873,13.283c0.059,0.011,0.114,0.016,0.175,0.026
		c-4.56,22.925-10.86,46.788-18.843,59.434l-0.602,0.806l0.811,0.607c0.622,0.47,1.687,0.771,2.164,0.866
		c0.104,0.02,0.354,0.078,0.699,0.156c1.474,0.327,2.675,0.586,3.661,0.78c3.636,0.732,4.336,0.665,4.772,0.491
		c2.433-0.968,4.837-3.833,7.248-8.71l11.062,30.726l5.586-27.87L381.243,132.567z M375.184,96.398l-1.935,4.09l-0.222-4.52
		l-3.721,2.576l2.068-4.025l-4.51,0.369l3.803-2.452l-4.09-1.934l4.519-0.222l-2.573-3.719l4.025,2.068l-0.371-4.511l2.452,3.806
		l1.935-4.093l0.218,4.521l3.726-2.576l-2.07,4.024l4.51-0.369l-3.806,2.449l4.094,1.936l-4.522,0.221l2.577,3.721l-4.025-2.068
		l0.373,4.511L375.184,96.398z"/>
	<path fill="#1A1A1A" d="M374.905,88.915c-1.791,0-3.245,1.453-3.245,3.246c0,1.793,1.454,3.247,3.245,3.247
		c1.794,0,3.249-1.453,3.249-3.247C378.154,90.368,376.699,88.915,374.905,88.915z M374.905,94.706c-1.404,0-2.544-1.14-2.544-2.545
		c0-1.405,1.14-2.543,2.544-2.543c1.406,0,2.545,1.139,2.545,2.543C377.45,93.566,376.312,94.706,374.905,94.706z"/>
</g>
<text transform="matrix(1 0 0 1 148.7754 342.8423)" fill="#F26522" font-family="'MyriadPro-BoldCondIt'" font-size="25.8384">Superior fuel for a superior workout</text>
<text transform="matrix(1 0 0 1 305.2876 582.8896)" fill="#414042" font-family="'MyriadPro-BoldCondIt'" font-size="20.6301">Superior fuel for a superior workout</text>
<g>
	<text transform="matrix(1 0 0 1 71.6973 571.4131)" font-family="'MyriadPro-BoldCondIt'" font-size="59.6554">IGN  </text>
	<g>
		<path d="M160.403,529.581c0.393,1.142-3.342,27.321-5.997,36.068c-0.415,1.367-2.27,5.244-2.27,5.244l-0.057-5.425l-3.712,9.936
			l1.828-16.959l-3.151,7.766c0,0-0.087-2.898,0-3.858c0.788-8.662,6.115-33.331,6.904-34.099
			C154.686,527.535,160.131,528.794,160.403,529.581z"/>
	</g>
	<text transform="matrix(1 0 0 1 160.4092 571.4131)" font-family="'MyriadPro-BoldCondIt'" font-size="59.6554">TE</text>
	<text transform="matrix(1 0 0 1 81.2856 524.6592)" font-family="'MyriadPro-Cond'" font-size="11.8254">Apollo Labs </text>
	<g>
		<path d="M161.552,524.97l-6.654-1.324c-0.714-0.141,1.628-3.072,2.002-4.129c0.242-0.687,1.026-1.141,1.739-0.999l1.419,0.283
			c0.715,0.142,1.264,0.86,1.225,1.589C161.224,521.508,162.266,525.112,161.552,524.97z"/>
		<path d="M167.749,505.469c0.691-2.684,1.391-5.809,2.111-9.397c2.457-12.264-0.821-23.43-0.853-23.539l-0.203-0.68l-0.45,0.548
			c-0.072,0.091-7.384,9.134-9.842,21.397c-0.749,3.738-1.32,6.88-1.728,9.583l-6.754,8.335l-2.079,10.368l8.872-9.694l0-0.146
			c0-2.81,0.079-3.784,0.716-8.689l0.109-0.829c0.396-2.513,0.924-5.399,1.601-8.778c1.932-9.643,6.553-16.76,8.517-19.482
			c-0.246,2.173-0.797,6.584-1.646,11.841c-2.242-0.395-4.401,1.07-4.847,3.314c-0.454,2.275,1.024,4.488,3.3,4.94
			c0.021,0.005,0.042,0.006,0.065,0.011c-1.696,8.526-4.04,17.402-7.008,22.105l-0.224,0.301l0.301,0.226
			c0.231,0.175,0.627,0.286,0.805,0.322c0.039,0.007,0.132,0.029,0.26,0.058c0.548,0.122,0.995,0.219,1.362,0.29
			c1.352,0.272,1.613,0.248,1.775,0.184c0.905-0.361,1.799-1.427,2.696-3.24l4.114,11.429l2.078-10.366L167.749,505.469z
			 M165.495,492.017l-0.72,1.521l-0.083-1.682l-1.384,0.958l0.769-1.497l-1.677,0.138l1.414-0.912l-1.521-0.719l1.681-0.084
			l-0.957-1.382l1.497,0.769l-0.138-1.678l0.912,1.416l0.719-1.522l0.081,1.681l1.386-0.958l-0.77,1.497l1.677-0.137l-1.416,0.911
			l1.523,0.72l-1.682,0.082l0.958,1.384l-1.497-0.77l0.139,1.678L165.495,492.017z"/>
		<path d="M165.391,489.232c-0.666,0-1.207,0.54-1.207,1.207c0,0.668,0.541,1.209,1.207,1.209c0.667,0,1.208-0.541,1.208-1.209
			C166.6,489.772,166.059,489.232,165.391,489.232z M165.391,491.387c-0.522,0-0.946-0.424-0.946-0.947
			c0-0.521,0.424-0.945,0.946-0.945c0.523,0,0.947,0.424,0.947,0.945C166.338,490.963,165.915,491.387,165.391,491.387z"/>
	</g>
	<text transform="matrix(1 0 0 1 81.2852 583.6816)" font-family="'MyriadPro-BoldCondIt'" font-size="9.6107">Superior fuel for a superior workout</text>
</g>
<text transform="matrix(1 0 0 1 305.2871 560.9551)" fill="#F26522" font-family="'MyriadPro-BoldCondIt'" font-size="59.6554">IGNITE  </text>
<g>
	<path fill="#414042" d="M450.265,547.18l-0.121-12.869c-0.018-1.382,6.334,1.831,8.44,2.114c1.368,0.186,2.515,1.466,2.529,2.843
		l0.024,2.745c0.015,1.382-1.108,2.68-2.475,2.892C456.563,545.225,450.276,548.56,450.265,547.18z"/>
	<path fill="#414042" d="M488.87,551.119c5.25,0.242,11.321,0.332,18.263,0.278c23.719-0.195,43.175-10.612,43.367-10.711
		l1.186-0.641l-1.192-0.626c-0.196-0.097-19.819-10.166-43.538-9.974c-7.23,0.062-13.285,0.219-18.461,0.51l-18.095-9.307
		l-20.051,0.161l21.437,12.713l0.27-0.06c5.216-1.091,7.057-1.32,16.411-2.039l1.58-0.12c4.821-0.239,10.383-0.378,16.92-0.432
		c18.648-0.154,33.653,5.665,39.468,8.256c-4.127,0.386-12.531,1.072-22.617,1.533c-0.142-4.314-3.695-7.754-8.033-7.708
		c-4.403,0.037-7.938,3.636-7.891,8.04c-0.004,0.041,0.005,0.081,0.003,0.126c-16.486,0.155-33.874-0.752-43.756-4.439l-0.645-0.3
		l-0.302,0.645c-0.235,0.498-0.289,1.275-0.285,1.62c0.002,0.074-0.004,0.258-0.008,0.506c-0.015,1.065-0.021,1.932-0.009,2.643
		c0.019,2.615,0.164,3.09,0.346,3.363c1.022,1.541,3.347,2.789,7.062,3.751l-19.623,12.069l20.053-0.165L488.87,551.119z
		 M512.969,541.724l-3.104-0.75l3.09-0.804l-2.315-2.2l3.078,0.852l-0.905-3.062l2.24,2.271l0.745-3.103l0.808,3.087l2.192-2.311
		l-0.847,3.078l3.065-0.908l-2.276,2.241l3.104,0.744l-3.09,0.803l2.315,2.202l-3.078-0.851l0.907,3.06l-2.238-2.272l-0.751,3.106
		l-0.804-3.092l-2.196,2.315l0.849-3.076l-3.058,0.909L512.969,541.724z"/>
	<path fill="#414042" d="M518.097,540.449c-0.259-1.236-1.469-2.033-2.707-1.773c-1.241,0.259-2.036,1.474-1.78,2.711
		c0.26,1.237,1.477,2.031,2.717,1.774C517.563,542.901,518.358,541.687,518.097,540.449z M514.097,541.283
		c-0.202-0.969,0.42-1.923,1.393-2.125c0.967-0.201,1.923,0.423,2.12,1.392c0.204,0.972-0.418,1.921-1.387,2.122
		C515.252,542.878,514.304,542.256,514.097,541.283z"/>
</g>
</svg>
