<?xml version="1.0" encoding="utf-8"?>
<!-- Generator: Adobe Illustrator 16.0.0, SVG Export Plug-In . SVG Version: 6.00 Build 0)  -->
<!DOCTYPE svg PUBLIC "-//W3C//DTD SVG 1.1//EN" "http://www.w3.org/Graphics/SVG/1.1/DTD/svg11.dtd">
<svg version="1.1" id="Layer_1" xmlns="http://www.w3.org/2000/svg" xmlns:xlink="http://www.w3.org/1999/xlink" x="0px" y="0px"
	 width="612px" height="792px" viewBox="0 0 612 792" enable-background="new 0 0 612 792" xml:space="preserve">
<g>
	<g>
		<g>
			<g>
				<path fill="#58BC75" d="M731.711,211.726c0.108-0.62,0.438-0.946,0.959-1.441c14.345-13.598,33.722-21.935,55.043-21.935
					c21.324,0,40.7,8.337,55.043,21.935c0.524,0.495,0.854,0.821,0.961,1.441c0.105,0.623-0.672,1.325-0.672,1.325l-11.314,11.316
					c-11.264-11.266-26.827-18.232-44.018-18.232c-17.188,0-32.75,6.967-44.016,18.232l-11.313-11.316
					C732.384,213.051,731.604,212.349,731.711,211.726z"/>
				<path fill="#58BC75" d="M787.713,170.565c-26.607,0-50.734,10.624-68.37,27.863c-0.268,0.26-0.533,0.524-0.796,0.788
					l-0.696-0.699l-10.168-10.167c0,0-0.688-0.528-0.75-1.563c-0.063-1.035,0.344-1.436,1.01-2.07
					c20.742-19.788,48.84-31.937,79.771-31.937"/>
			</g>
		</g>
		<g>
			<g>
				<path fill="#58BC75" d="M731.711,211.726c0.108-0.62,0.438-0.946,0.959-1.441c14.345-13.598,33.722-21.935,55.043-21.935
					c21.324,0,40.7,8.337,55.043,21.935c0.524,0.495,0.854,0.821,0.961,1.441c0.105,0.623-0.672,1.325-0.672,1.325l-11.314,11.316
					c-11.264-11.266-26.827-18.232-44.018-18.232c-17.188,0-32.75,6.967-44.016,18.232l-11.313-11.316
					C732.384,213.051,731.604,212.349,731.711,211.726z"/>
				<path fill="#58BC75" d="M707.941,184.717c20.742-19.788,48.84-31.937,79.771-31.937c30.935,0,59.03,12.149,79.775,31.937
					c0.664,0.634,1.072,1.035,1.009,2.07c-0.065,1.035-0.751,1.563-0.751,1.563l-10.168,10.167l-0.697,0.699
					c-0.264-0.264-0.527-0.528-0.795-0.788c-17.636-17.239-41.762-27.863-68.373-27.863c-26.608,0-50.735,10.624-68.37,27.863
					c-0.268,0.26-0.533,0.524-0.796,0.788l-0.696-0.699l-10.168-10.167c0,0-0.688-0.528-0.75-1.563
					C706.868,185.751,707.275,185.351,707.941,184.717z"/>
			</g>
		</g>
		<path fill="#58BC75" d="M835.825,140.924c-3.451-2.177-6.929-4.314-10.507-6.21c-3.497-1.854-7.322-3.394-11.326-3.527
			c-5.178-0.172-11.046-0.18-19.692-0.53c-14.672-0.315-28.946,0.015-46.124,8.333c-2.669,1.292-15.617,5.656-17.607,6.214
			c-1.104,0.31-7.394,1.969-8.455,2.32c-4.787,1.583-15.622,21.204-21.848,19.49c-1.57-0.432-2.361-0.468-3.867-2.047
			c-0.647-0.679,19.336-24.26,19.336-24.26c8.531-6.239,14.52-8.359,18.756-12.671c4.233-4.312,12.316-19.152,12.316-19.152
			c-6.846-5.059-10.027-16.22-10.027-16.22c5.581-4.499,11.774-1.167,15.99,2.421c2.178-2.7,3.1-3.612,4.246-4.036
			c1.05-0.387,14.951-1.515,26.266,0.978c19.443,4.284,36.687,10.365,47.318,2.826c2.111-1.497-4.359-5.848-15.353-17.331
			c-4.662-4.87,0.695-22.395,1.798-23.154c1.102-0.758,9.032,1.624,11.854,4.684c2.822,3.059,3.268,3.335,6.259,8.811
			c2.989,5.477,3.456,16.367,3.391,17.971c-0.036,0.904,0.412,7.743,0.24,8.773c7.175,4.784,16.273,8.965,21.112,16.417
			c1.821,2.805,1.964,5.544,1.754,8.751c-0.557,8.508-16.705,1.542-20.302,0.18c-2.312-0.876-4.909-2.944-7.499-2.042
			c-2.115,0.738-4.47,3.383-6.212,4.811c6.312,8.554,15.595,13.684,24.537,19.047c3.229,1.937,6.481,3.833,9.773,5.663
			c4.568,2.54,9.347,7.41,12.256,11.791c0,0-5.705,3.703-11.585-0.753c-5.978-4.528-12.32-8.543-18.708-12.458
			C841.212,144.356,838.527,142.628,835.825,140.924z"/>
	</g>
	<g>
		<path fill="#39B7C4" d="M696.492,279.299h11.473v1.484c0,0.765-0.405,1.17-1.26,1.214l-6.793,0.495
			c1.664,2.295,2.609,5.174,2.609,8.414c0,8.592-6.479,14.306-15.927,14.306c-2.563,0-4.903-0.405-7.019-1.17
			c-2.52,1.438-4.048,3.6-4.048,5.443c0,10.393,31.626-1.08,31.626,15.026c0,7.377-7.738,14.261-20.155,14.261
			c-12.551,0-19.074-5.534-19.074-11.968c0-4.724,3.329-8.232,8.771-10.077c-3.014-1.034-4.902-2.789-4.902-6.208
			c0-2.52,1.979-5.668,5.533-7.558c-4.274-2.475-6.748-6.613-6.748-12.056c0-8.594,6.389-14.352,16.016-14.352
			C690.509,276.555,693.839,277.545,696.492,279.299z M679.622,317.447c-4.588,1.799-7.872,4.634-7.872,8.862
			c0,5.219,5.488,9.268,15.295,9.268c9.133,0,16.151-4.318,16.151-10.481C703.196,316.593,688.89,319.067,679.622,317.447z
			 M698.607,290.995c0-6.747-4.453-11.291-12.013-11.291c-7.603,0-12.057,4.544-12.057,11.291c0,6.658,4.454,11.292,12.057,11.292
			C694.333,302.287,698.607,297.653,698.607,290.995z"/>
		<path fill="#39B7C4" d="M750.07,299.678c0,13.99-7.515,22.989-20.379,22.989c-12.867,0-20.427-8.999-20.427-22.989
			c0-13.991,7.56-23.078,20.427-23.078C742.557,276.6,750.07,285.687,750.07,299.678z M745.661,299.678
			c0-11.922-5.31-19.704-15.97-19.704c-10.618,0-16.018,7.782-16.018,19.704c0,12.012,5.398,19.613,16.018,19.613
			C740.354,319.291,745.661,311.689,745.661,299.678z"/>
		<path fill="#58BC75" d="M758.925,275.924h8.818c1.664,0,2.879,0.855,3.193,2.069l6.612,24.654c0.72,2.698,1.124,5.263,1.53,7.827
			c0.675-2.564,1.395-5.129,2.249-7.827l7.646-24.743c0.36-1.215,1.53-2.07,2.969-2.07h4.905c1.617,0,2.744,0.855,3.104,2.07
			l7.559,25.193c0.766,2.563,1.396,4.947,1.979,7.422c0.405-2.564,0.899-5.129,1.665-7.872l6.839-24.654
			c0.312-1.214,1.574-2.069,3.059-2.069h8.412l-14.621,46.157h-8.951c-0.944,0-1.664-0.674-2.07-1.979l-8.322-26.678
			c-0.539-1.755-0.99-3.509-1.304-5.264c-0.36,1.8-0.766,3.554-1.305,5.354l-8.413,26.588c-0.404,1.305-1.215,1.979-2.43,1.979
			h-8.503L758.925,275.924z"/>
		<path fill="#58BC75" d="M842.01,269.446c-3.824,0-7.018-3.194-7.018-6.973c0-3.959,3.192-7.108,7.018-7.108
			c3.914,0,7.198,3.149,7.198,7.108C849.208,266.252,845.924,269.446,842.01,269.446z"/>
		<rect x="836.432" y="275.924" fill="#58BC75" width="11.111" height="46.157"/>
		<path fill="#58BC75" d="M862.072,322.081v-37.789l-4.004-0.629c-1.754-0.315-2.879-1.171-2.879-2.79v-4.544h6.883v-3.418
			c0-10.573,6.567-17.006,17.229-17.006c2.114,0,4.094,0.27,5.938,0.854l-0.228,5.578c-0.134,1.755-1.844,1.936-3.823,1.936
			c-5.264,0-8.366,2.114-8.366,8.997v3.059h12.012v7.919h-11.652v37.833H862.072z"/>
		<path fill="#58BC75" d="M897.925,269.446c-3.824,0-7.018-3.194-7.018-6.973c0-3.959,3.192-7.108,7.018-7.108
			c3.914,0,7.198,3.149,7.198,7.108C905.123,266.252,901.839,269.446,897.925,269.446z M903.458,275.924v46.157h-11.111v-46.157
			H903.458z"/>
	</g>
	<g>
		<path fill="#39B7C4" d="M913.069,315.048h-2.604v-0.939h6.335v0.939h-2.615v7.617h-1.116V315.048z"/>
		<path fill="#39B7C4" d="M924.966,318.907c-0.062-1.193-0.14-2.628-0.127-3.694h-0.038c-0.292,1.003-0.646,2.069-1.079,3.25
			l-1.511,4.151h-0.838l-1.384-4.075c-0.406-1.206-0.749-2.311-0.99-3.326h-0.025c-0.024,1.066-0.089,2.501-0.165,3.783
			l-0.229,3.669h-1.054l0.597-8.557h1.409l1.46,4.139c0.354,1.054,0.646,1.993,0.863,2.882h0.037
			c0.217-0.863,0.521-1.803,0.901-2.882l1.523-4.139h1.408l0.533,8.557h-1.079L924.966,318.907z"/>
	</g>
</g>
<g>
	<g>
		<g>
			<path fill="#191919" d="M-129.703,388.186c0.04-0.23,0.162-0.352,0.356-0.536c5.33-5.053,12.53-8.149,20.452-8.149
				c7.923,0,15.123,3.097,20.452,8.149c0.195,0.185,0.317,0.306,0.357,0.536c0.04,0.231-0.25,0.492-0.25,0.492l-4.204,4.205
				c-4.185-4.187-9.968-6.774-16.355-6.774c-6.386,0-12.169,2.588-16.354,6.774l-4.204-4.205
				C-129.454,388.678-129.743,388.417-129.703,388.186z"/>
			<path fill="#191919" d="M-108.896,372.892c-9.887,0-18.851,3.947-25.404,10.354c-0.099,0.096-0.198,0.194-0.295,0.292
				l-0.259-0.26l-3.778-3.777c0,0-0.256-0.196-0.279-0.581c-0.024-0.384,0.128-0.533,0.375-0.769
				c7.707-7.353,18.146-11.866,29.64-11.866"/>
		</g>
	</g>
	<g>
		<g>
			<path fill="#191919" d="M-129.703,388.186c0.04-0.23,0.162-0.352,0.356-0.536c5.33-5.053,12.53-8.149,20.452-8.149
				c7.923,0,15.123,3.097,20.452,8.149c0.195,0.185,0.317,0.306,0.357,0.536c0.04,0.231-0.25,0.492-0.25,0.492l-4.204,4.205
				c-4.185-4.187-9.968-6.774-16.355-6.774c-6.386,0-12.169,2.588-16.354,6.774l-4.204-4.205
				C-129.454,388.678-129.743,388.417-129.703,388.186z"/>
			<path fill="#191919" d="M-138.535,378.15c7.707-7.353,18.146-11.866,29.64-11.866s21.934,4.514,29.642,11.866
				c0.247,0.235,0.399,0.385,0.375,0.769c-0.024,0.385-0.279,0.581-0.279,0.581l-3.778,3.777l-0.259,0.26
				c-0.098-0.098-0.196-0.196-0.295-0.292c-6.553-6.406-15.517-10.354-25.405-10.354c-9.887,0-18.851,3.947-25.404,10.354
				c-0.099,0.096-0.198,0.194-0.295,0.292l-0.259-0.26l-3.778-3.777c0,0-0.256-0.196-0.279-0.581
				C-138.935,378.535-138.783,378.386-138.535,378.15z"/>
		</g>
	</g>
	<path fill="#191919" d="M-91.019,361.878c-1.283-0.809-2.574-1.603-3.904-2.308c-1.299-0.688-2.72-1.261-4.208-1.311
		c-1.924-0.063-4.104-0.066-7.317-0.196c-5.451-0.117-10.755,0.005-17.138,3.096c-0.992,0.479-5.803,2.102-6.542,2.31
		c-0.41,0.115-2.747,0.731-3.142,0.861c-1.779,0.588-5.805,7.879-8.118,7.242c-0.584-0.161-0.877-0.174-1.437-0.762
		c-0.241-0.252,7.185-9.014,7.185-9.014c3.17-2.317,5.395-3.106,6.969-4.708c1.573-1.602,4.577-7.116,4.577-7.116
		c-2.543-1.879-3.726-6.026-3.726-6.026c2.074-1.672,4.375-0.435,5.942,0.899c0.809-1.004,1.151-1.342,1.578-1.499
		c0.389-0.145,5.555-0.562,9.759,0.363c7.225,1.592,13.632,3.851,17.583,1.049c0.784-0.556-1.621-2.173-5.705-6.438
		c-1.732-1.81,0.258-8.321,0.668-8.604c0.409-0.281,3.356,0.604,4.404,1.74c1.049,1.137,1.214,1.239,2.325,3.274
		c1.111,2.035,1.284,6.081,1.26,6.678c-0.014,0.335,0.153,2.876,0.089,3.259c2.666,1.778,6.047,3.331,7.845,6.101
		c0.677,1.042,0.729,2.06,0.651,3.251c-0.207,3.162-6.207,0.573-7.543,0.067c-0.859-0.325-1.824-1.094-2.787-0.759
		c-0.786,0.274-1.661,1.257-2.308,1.787c2.346,3.179,5.795,5.085,9.117,7.077c1.2,0.721,2.408,1.425,3.631,2.104
		c1.698,0.944,3.473,2.753,4.554,4.381c0,0-2.12,1.376-4.305-0.279c-2.221-1.683-4.578-3.175-6.951-4.63
		C-89.017,363.153-90.015,362.512-91.019,361.878z"/>
</g>
<g>
	<path fill="#191919" d="M-142.79,413.293h4.263v0.552c0,0.284-0.151,0.437-0.468,0.451l-2.524,0.185
		c0.619,0.853,0.97,1.923,0.97,3.127c0,3.191-2.407,5.313-5.917,5.313c-0.953,0-1.822-0.149-2.608-0.435
		c-0.936,0.535-1.504,1.338-1.504,2.021c0,3.862,11.751-0.4,11.751,5.584c0,2.741-2.875,5.298-7.489,5.298
		c-4.664,0-7.087-2.056-7.087-4.445c0-1.755,1.237-3.06,3.259-3.744c-1.119-0.384-1.821-1.036-1.821-2.308
		c0-0.937,0.735-2.104,2.056-2.809c-1.588-0.919-2.507-2.457-2.507-4.479c0-3.193,2.374-5.333,5.951-5.333
		C-145.013,412.273-143.775,412.642-142.79,413.293z M-149.058,427.468c-1.705,0.668-2.925,1.723-2.925,3.293
		c0,1.938,2.039,3.443,5.684,3.443c3.393,0,6-1.604,6-3.896C-140.299,427.15-145.614,428.069-149.058,427.468z M-142.003,417.639
		c0-2.507-1.655-4.194-4.463-4.194c-2.825,0-4.479,1.688-4.479,4.194c0,2.476,1.655,4.196,4.479,4.196
		C-143.592,421.835-142.003,420.113-142.003,417.639z"/>
	<path fill="#191919" d="M-122.882,420.865c0,5.197-2.792,8.542-7.572,8.542c-4.781,0-7.589-3.345-7.589-8.542
		c0-5.199,2.809-8.574,7.589-8.574C-125.674,412.291-122.882,415.666-122.882,420.865z M-124.52,420.865
		c0-4.431-1.973-7.321-5.934-7.321c-3.945,0-5.951,2.892-5.951,7.321c0,4.463,2.006,7.288,5.951,7.288
		C-126.493,428.153-124.52,425.328-124.52,420.865z"/>
	<path fill="#191919" d="M-119.592,412.04h3.276c0.619,0,1.069,0.317,1.187,0.768l2.457,9.16c0.267,1.004,0.417,1.956,0.568,2.909
		c0.25-0.953,0.518-1.905,0.835-2.909l2.842-9.192c0.134-0.45,0.568-0.77,1.103-0.77h1.822c0.601,0,1.02,0.318,1.153,0.77
		l2.809,9.36c0.284,0.952,0.518,1.839,0.735,2.758c0.151-0.951,0.335-1.904,0.619-2.926l2.541-9.16
		c0.116-0.449,0.585-0.768,1.137-0.768h3.125l-5.433,17.149h-3.326c-0.351,0-0.618-0.252-0.77-0.735l-3.092-9.913
		c-0.2-0.651-0.368-1.303-0.484-1.955c-0.134,0.669-0.284,1.32-0.484,1.988l-3.126,9.88c-0.151,0.484-0.451,0.735-0.903,0.735h-3.16
		L-119.592,412.04z"/>
	<path fill="#191919" d="M-88.721,409.632c-1.421,0-2.607-1.187-2.607-2.591c0-1.471,1.187-2.64,2.607-2.64
		c1.455,0,2.675,1.169,2.675,2.64C-86.046,408.445-87.266,409.632-88.721,409.632z"/>
	<rect x="-90.793" y="412.04" fill="#191919" width="4.128" height="17.149"/>
	<path fill="#191919" d="M-81.266,429.189v-14.042l-1.488-0.232c-0.651-0.117-1.07-0.437-1.07-1.037v-1.688h2.558v-1.271
		c0-3.929,2.44-6.319,6.402-6.319c0.786,0,1.521,0.102,2.207,0.318l-0.084,2.072c-0.05,0.651-0.685,0.72-1.421,0.72
		c-1.955,0-3.108,0.785-3.108,3.342v1.138h4.463v2.941h-4.33v14.059L-81.266,429.189L-81.266,429.189z"/>
	<path fill="#191919" d="M-67.945,409.632c-1.421,0-2.607-1.187-2.607-2.591c0-1.471,1.187-2.64,2.607-2.64
		c1.455,0,2.675,1.169,2.675,2.64C-65.27,408.445-66.49,409.632-67.945,409.632z M-65.889,412.04v17.149h-4.129V412.04H-65.889z"/>
</g>
<text transform="matrix(1 0 0 1 -63.2798 429.4062)" fill="#191919" font-family="'MyriadPro-Regular'" font-size="4.7179">TM</text>
<g>
	<g>
		<g>
			<path fill="#58BC75" d="M736.288,516.672c0.037-0.214,0.15-0.327,0.331-0.498c4.956-4.697,11.65-7.578,19.017-7.578
				c7.367,0,14.062,2.881,19.017,7.578c0.182,0.171,0.295,0.284,0.332,0.498c0.037,0.215-0.232,0.458-0.232,0.458l-3.908,3.909
				c-3.892-3.893-9.269-6.299-15.207-6.299c-5.938,0-11.313,2.406-15.207,6.299l-3.907-3.909
				C736.521,517.13,736.251,516.887,736.288,516.672z"/>
			<path fill="#58BC75" d="M755.636,502.451c-9.192,0-17.526,3.671-23.62,9.626c-0.093,0.09-0.185,0.182-0.274,0.272l-0.239-0.241
				l-3.514-3.514c0,0-0.238-0.183-0.261-0.54c-0.021-0.356,0.119-0.496,0.35-0.715c7.167-6.836,16.873-11.034,27.56-11.034"/>
		</g>
	</g>
	<g>
		<g>
			<path fill="#58BC75" d="M736.288,516.672c0.037-0.214,0.15-0.327,0.331-0.498c4.956-4.697,11.65-7.578,19.017-7.578
				c7.367,0,14.062,2.881,19.017,7.578c0.182,0.171,0.295,0.284,0.332,0.498c0.037,0.215-0.232,0.458-0.232,0.458l-3.908,3.909
				c-3.892-3.893-9.269-6.299-15.207-6.299c-5.938,0-11.313,2.406-15.207,6.299l-3.907-3.909
				C736.521,517.13,736.251,516.887,736.288,516.672z"/>
			<path fill="#58BC75" d="M728.076,507.341c7.167-6.836,16.873-11.034,27.56-11.034c10.688,0,20.395,4.198,27.562,11.034
				c0.229,0.219,0.371,0.357,0.348,0.715c-0.021,0.357-0.258,0.54-0.258,0.54l-3.514,3.514l-0.24,0.241
				c-0.092-0.092-0.185-0.184-0.275-0.272c-6.093-5.955-14.428-9.626-23.621-9.626c-9.192,0-17.526,3.671-23.62,9.626
				c-0.093,0.09-0.185,0.182-0.274,0.272l-0.239-0.241l-3.514-3.514c0,0-0.238-0.183-0.261-0.54
				C727.707,507.699,727.847,507.56,728.076,507.341z"/>
		</g>
	</g>
	<path fill="#58BC75" d="M772.257,492.211c-1.19-0.752-2.394-1.49-3.629-2.146c-1.209-0.641-2.53-1.174-3.914-1.219
		c-1.788-0.061-3.814-0.062-6.803-0.184c-5.068-0.109-10,0.006-15.936,2.879c-0.922,0.445-5.396,1.954-6.083,2.146
		c-0.382,0.106-2.555,0.681-2.922,0.801c-1.652,0.548-5.396,7.326-7.547,6.733c-0.543-0.148-0.815-0.162-1.336-0.707
		c-0.225-0.233,6.68-8.382,6.68-8.382c2.947-2.154,5.017-2.888,6.479-4.377c1.464-1.49,4.256-6.617,4.256-6.617
		c-2.364-1.747-3.464-5.604-3.464-5.604c1.929-1.554,4.067-0.403,5.523,0.837c0.753-0.934,1.07-1.248,1.468-1.395
		c0.361-0.135,5.166-0.523,9.073,0.338c6.718,1.479,12.675,3.58,16.349,0.976c0.729-0.517-1.506-2.021-5.306-5.987
		c-1.608-1.683,0.24-7.735,0.621-7.998s3.121,0.562,4.097,1.617c0.975,1.057,1.129,1.152,2.162,3.045
		c1.032,1.893,1.192,5.653,1.172,6.208c-0.015,0.312,0.142,2.676,0.082,3.031c2.479,1.652,5.622,3.097,7.295,5.671
		c0.629,0.969,0.678,1.916,0.604,3.023c-0.191,2.938-5.771,0.533-7.014,0.062c-0.799-0.303-1.696-1.018-2.591-0.705
		c-0.731,0.254-1.544,1.168-2.146,1.662c2.183,2.955,5.388,4.728,8.479,6.58c1.114,0.669,2.237,1.324,3.376,1.956
		c1.579,0.878,3.229,2.561,4.233,4.073c0,0-1.972,1.278-4.003-0.26c-2.063-1.564-4.256-2.951-6.463-4.306
		C774.118,493.397,773.19,492.801,772.257,492.211z"/>
</g>
<g>
	<path fill="#39B7C4" d="M808.429,488.3h3.963v0.513c0,0.265-0.14,0.404-0.435,0.421l-2.347,0.17
		c0.575,0.793,0.899,1.788,0.899,2.906c0,2.969-2.235,4.942-5.502,4.942c-0.885,0-1.692-0.141-2.424-0.404
		c-0.87,0.497-1.398,1.244-1.398,1.882c0,3.59,10.927-0.373,10.927,5.19c0,2.548-2.674,4.926-6.963,4.926
		c-4.336,0-6.591-1.912-6.591-4.134c0-1.632,1.15-2.845,3.03-3.48c-1.04-0.357-1.692-0.965-1.692-2.146
		c0-0.871,0.684-1.959,1.91-2.611c-1.477-0.854-2.33-2.284-2.33-4.164c0-2.97,2.207-4.959,5.531-4.959
		C806.362,487.352,807.512,487.693,808.429,488.3z M802.601,501.479c-1.585,0.621-2.72,1.603-2.72,3.062
		c0,1.803,1.896,3.202,5.284,3.202c3.154,0,5.58-1.493,5.58-3.622C810.745,501.184,805.802,502.039,802.601,501.479z
		 M809.159,492.34c0-2.33-1.538-3.899-4.15-3.899c-2.625,0-4.164,1.569-4.164,3.899c0,2.301,1.539,3.902,4.164,3.902
		C807.683,496.242,809.159,494.641,809.159,492.34z"/>
	<path fill="#39B7C4" d="M826.938,495.34c0,4.834-2.596,7.942-7.041,7.942c-4.443,0-7.056-3.108-7.056-7.942
		s2.611-7.973,7.056-7.973C824.343,487.367,826.938,490.506,826.938,495.34z M825.415,495.34c0-4.119-1.834-6.807-5.519-6.807
		c-3.668,0-5.532,2.688-5.532,6.807c0,4.15,1.864,6.775,5.532,6.775C823.581,502.115,825.415,499.49,825.415,495.34z"/>
	<path fill="#58BC75" d="M829.997,487.134h3.047c0.575,0,0.994,0.295,1.104,0.715l2.284,8.518c0.248,0.933,0.389,1.817,0.527,2.705
		c0.234-0.888,0.482-1.772,0.777-2.705l2.643-8.547c0.125-0.42,0.529-0.717,1.025-0.717h1.694c0.56,0,0.947,0.297,1.072,0.717
		l2.61,8.703c0.265,0.886,0.48,1.709,0.684,2.563c0.141-0.887,0.312-1.771,0.575-2.721l2.362-8.518
		c0.107-0.42,0.544-0.715,1.058-0.715h2.906l-5.052,15.946h-3.094c-0.325,0-0.575-0.233-0.715-0.685l-2.875-9.217
		c-0.187-0.605-0.342-1.212-0.451-1.817c-0.125,0.621-0.264,1.229-0.45,1.85l-2.906,9.187c-0.141,0.449-0.419,0.684-0.839,0.684
		h-2.938L829.997,487.134z"/>
	<path fill="#58BC75" d="M858.702,484.896c-1.322,0-2.426-1.104-2.426-2.409c0-1.367,1.104-2.455,2.426-2.455
		c1.352,0,2.486,1.088,2.486,2.455C861.188,483.793,860.054,484.896,858.702,484.896z"/>
	<rect x="856.774" y="487.134" fill="#58BC75" width="3.839" height="15.946"/>
	<path fill="#58BC75" d="M865.632,503.08v-13.055l-1.383-0.22c-0.604-0.107-0.994-0.403-0.994-0.963v-1.569h2.377v-1.183
		c0-3.65,2.271-5.874,5.953-5.874c0.73,0,1.416,0.093,2.051,0.295l-0.075,1.929c-0.048,0.604-0.64,0.668-1.32,0.668
		c-1.82,0-2.894,0.729-2.894,3.107v1.058h4.15v2.735h-4.025v13.07L865.632,503.08L865.632,503.08z"/>
	<path fill="#58BC75" d="M878.019,484.896c-1.319,0-2.424-1.104-2.424-2.409c0-1.367,1.104-2.455,2.424-2.455
		c1.354,0,2.488,1.088,2.488,2.455C880.507,483.793,879.372,484.896,878.019,484.896z M879.931,487.134v15.946h-3.84v-15.946
		H879.931z"/>
</g>
<line fill="none" stroke="#F26522" stroke-miterlimit="10" x1="90.712" y1="408" x2="521.287" y2="408"/>
<line fill="none" stroke="#F26522" stroke-miterlimit="10" x1="90.712" y1="649" x2="521.287" y2="649"/>
<rect x="197.588" y="706.648" fill="#F26522" width="36.703" height="36.701"/>
<rect x="248.424" y="706.648" fill="#414042" width="36.702" height="36.701"/>
<g enable-background="new    ">
	<path fill="#F26522" d="M318.365,717v-9.047h1.898c0.91,0,1.629,0.09,2.156,0.27c0.566,0.176,1.08,0.475,1.541,0.896
		c0.934,0.852,1.4,1.971,1.4,3.357c0,1.391-0.486,2.516-1.459,3.375c-0.488,0.43-1,0.729-1.535,0.896
		c-0.5,0.168-1.209,0.252-2.127,0.252H318.365z M319.73,715.717h0.615c0.613,0,1.123-0.064,1.529-0.193
		c0.406-0.137,0.773-0.354,1.102-0.65c0.672-0.613,1.008-1.412,1.008-2.396c0-0.992-0.332-1.797-0.996-2.414
		c-0.598-0.551-1.479-0.826-2.643-0.826h-0.615V715.717z"/>
	<path fill="#F26522" d="M332.07,709.236h-3.627v2.174h3.521v1.283h-3.521v3.023h3.627V717h-4.992v-9.047h4.992V709.236z"/>
	<path fill="#F26522" d="M338.979,709.301l-1.107,0.656c-0.207-0.359-0.404-0.594-0.592-0.703c-0.195-0.125-0.447-0.188-0.756-0.188
		c-0.379,0-0.693,0.107-0.943,0.322c-0.25,0.211-0.375,0.477-0.375,0.797c0,0.441,0.328,0.797,0.984,1.066l0.902,0.369
		c0.734,0.297,1.271,0.659,1.611,1.087s0.51,0.952,0.51,1.573c0,0.832-0.277,1.52-0.832,2.062c-0.559,0.547-1.252,0.82-2.08,0.82
		c-0.785,0-1.434-0.232-1.945-0.697c-0.504-0.465-0.818-1.119-0.943-1.963l1.383-0.305c0.062,0.531,0.172,0.898,0.328,1.102
		c0.281,0.391,0.691,0.586,1.23,0.586c0.426,0,0.779-0.143,1.061-0.428s0.422-0.646,0.422-1.084c0-0.176-0.024-0.337-0.073-0.483
		s-0.125-0.281-0.229-0.404s-0.237-0.238-0.401-0.346s-0.359-0.21-0.586-0.308l-0.873-0.363c-1.238-0.523-1.857-1.289-1.857-2.297
		c0-0.68,0.26-1.248,0.779-1.705c0.52-0.461,1.166-0.691,1.939-0.691C337.578,707.777,338.393,708.285,338.979,709.301z"/>
	<path fill="#F26522" d="M342.225,707.953V717h-1.365v-9.047H342.225z"/>
	<path fill="#F26522" d="M349.051,712.289h3.738v0.299c0,0.68-0.08,1.281-0.24,1.805c-0.156,0.484-0.42,0.938-0.791,1.359
		c-0.84,0.945-1.908,1.418-3.205,1.418c-1.266,0-2.35-0.457-3.252-1.371c-0.902-0.918-1.354-2.02-1.354-3.305
		c0-1.312,0.459-2.426,1.377-3.34c0.918-0.918,2.035-1.377,3.352-1.377c0.707,0,1.367,0.145,1.98,0.434
		c0.586,0.289,1.162,0.758,1.729,1.406l-0.973,0.932c-0.742-0.988-1.646-1.482-2.713-1.482c-0.957,0-1.76,0.33-2.408,0.99
		c-0.648,0.648-0.973,1.461-0.973,2.438c0,1.008,0.361,1.838,1.084,2.49c0.676,0.605,1.408,0.908,2.197,0.908
		c0.672,0,1.275-0.227,1.811-0.68c0.535-0.457,0.834-1.004,0.896-1.641h-2.256V712.289z"/>
	<path fill="#F26522" d="M354.506,717v-9.662l6.598,6.902v-6.287h1.365v9.598l-6.598-6.885V717H354.506z"/>
	<path fill="#F26522" d="M369.629,709.236h-3.627v2.174h3.521v1.283h-3.521v3.023h3.627V717h-4.992v-9.047h4.992V709.236z"/>
	<path fill="#F26522" d="M374.486,713.145l2.801,3.855h-1.67l-2.584-3.703h-0.246V717h-1.365v-9.047h1.6
		c1.195,0,2.059,0.225,2.59,0.674c0.586,0.5,0.879,1.16,0.879,1.98c0,0.641-0.184,1.191-0.551,1.652
		S375.088,713.016,374.486,713.145z M372.787,712.107h0.434c1.293,0,1.939-0.494,1.939-1.482c0-0.926-0.629-1.389-1.887-1.389
		h-0.486V712.107z"/>
	<path fill="#F26522" d="M378.6,711.938c0-0.215,0.08-0.402,0.24-0.562s0.352-0.24,0.574-0.24s0.414,0.08,0.574,0.24
		s0.24,0.352,0.24,0.574c0,0.227-0.08,0.42-0.24,0.58c-0.156,0.156-0.348,0.234-0.574,0.234s-0.42-0.08-0.58-0.24
		C378.678,712.367,378.6,712.172,378.6,711.938z M378.6,716.344c0-0.219,0.08-0.408,0.24-0.568s0.352-0.24,0.574-0.24
		s0.414,0.08,0.574,0.24s0.24,0.352,0.24,0.574c0,0.227-0.08,0.42-0.24,0.58c-0.156,0.156-0.348,0.234-0.574,0.234
		c-0.23,0-0.424-0.078-0.58-0.234S378.6,716.578,378.6,716.344z"/>
</g>
<g enable-background="new    ">
	<path fill="#F26522" d="M319.73,725.963l3.521-3.609h1.822l-4.09,4.096l4.113,4.951h-1.828l-3.258-4.025l-0.281,0.281v3.744h-1.365
		v-9.047h1.365V725.963z"/>
	<path fill="#F26522" d="M331.631,729.203h-3.873l-1.008,2.197h-1.471l4.477-9.615l4.318,9.615h-1.494L331.631,729.203z
		 M331.074,727.92l-1.342-3.076l-1.406,3.076H331.074z"/>
	<path fill="#F26522" d="M335.205,731.4v-9.047h1.898c0.91,0,1.629,0.09,2.156,0.27c0.566,0.176,1.08,0.475,1.541,0.896
		c0.934,0.852,1.4,1.971,1.4,3.357c0,1.391-0.486,2.516-1.459,3.375c-0.488,0.43-1,0.729-1.535,0.896
		c-0.5,0.168-1.209,0.252-2.127,0.252H335.205z M336.57,730.117h0.615c0.613,0,1.123-0.064,1.529-0.193
		c0.406-0.137,0.773-0.354,1.102-0.65c0.672-0.613,1.008-1.412,1.008-2.396c0-0.992-0.332-1.797-0.996-2.414
		c-0.598-0.551-1.479-0.826-2.643-0.826h-0.615V730.117z"/>
	<path fill="#F26522" d="M348.91,723.637h-3.627v2.174h3.521v1.283h-3.521v3.023h3.627v1.283h-4.992v-9.047h4.992V723.637z"/>
	<path fill="#F26522" d="M355.771,725.963l3.521-3.609h1.822l-4.09,4.096l4.113,4.951h-1.828l-3.258-4.025l-0.281,0.281v3.744
		h-1.365v-9.047h1.365V725.963z"/>
	<path fill="#F26522" d="M367.35,723.637h-3.627v2.174h3.521v1.283h-3.521v3.023h3.627v1.283h-4.992v-9.047h4.992V723.637z"/>
	<path fill="#F26522" d="M370.508,722.354v9.047h-1.365v-9.047H370.508z"/>
	<path fill="#F26522" d="M375.178,723.637v7.764h-1.365v-7.764h-2.08v-1.283h5.52v1.283H375.178z"/>
	<path fill="#F26522" d="M379.836,725.893h3.902v-3.539h1.365v9.047h-1.365v-4.225h-3.902v4.225h-1.365v-9.047h1.365V725.893z"/>
</g>
<rect x="-1265.317" y="112.477" fill="#E6E7E8" width="594" height="591.047"/>
<g enable-background="new    ">
	<path fill="#414042" d="M165.98,201.759l-20.69,108.1h-20.048l20.689-108.1H165.98z"/>
	<path fill="#414042" d="M224.199,306.812c-5.934,2.245-12.991,4.009-21.331,4.009c-12.831,0-20.69-4.17-26.303-11.227
		c-5.293-6.576-8.02-17.161-8.02-26.944c0-22.294,7.378-43.144,20.369-56.938c9.142-9.623,21.812-14.915,35.124-14.915
		c8.982,0,13.954,1.604,17.162,2.887l-6.416,17.643c-2.566-1.123-7.217-2.246-11.708-2.246c-7.378,0-12.991,2.406-17.963,7.218
		c-8.821,8.821-15.397,25.982-15.397,46.03c0,13.473,4.331,21.171,12.991,21.171c2.246,0,4.01-0.16,5.774-0.642l4.972-26.784h-9.784
		l3.368-16.199h27.907L224.199,306.812z"/>
	<path fill="#414042" d="M239.754,309.858l20.689-108.1h18.284l8.34,42.983c2.727,14.274,4.491,24.539,5.292,33.521h0.321
		c1.443-11.869,3.368-30.474,6.736-48.437l5.292-28.067h17.321l-20.689,108.1h-17.162l-8.661-40.257
		c-3.368-15.076-4.331-22.454-5.453-35.926h-0.321c-1.443,10.906-3.849,28.709-7.377,47.474l-5.453,28.709H239.754z"/>
</g>
<g>
	<path fill="#F26522" d="M361.494,197.394c1.059,3.07-8.984,73.452-16.122,96.968c-1.115,3.675-6.103,14.099-6.103,14.099
		l-0.153-14.584l-9.979,26.71l4.913-45.592l-8.471,20.877c0,0-0.235-7.792,0-10.374c2.118-23.288,16.438-89.611,18.561-91.673
		C346.124,191.891,360.764,195.274,361.494,197.394z"/>
</g>
<g enable-background="new    ">
	<path fill="#414042" d="M390.37,220.685h-18.765l3.688-18.926h57.579l-3.689,18.926h-18.766l-17,89.174h-20.049L390.37,220.685z"/>
	<path fill="#414042" d="M476.176,262.063h-23.738l-5.934,29.992h27.266l-3.529,17.803h-47.152l20.689-108.1h45.229l-3.528,17.643
		h-24.86l-5.292,25.661h24.218L476.176,262.063z"/>
</g>
<text transform="matrix(1 0 0 1 148.7759 184.1602)" fill="#F26522" font-family="'MyriadPro-Cond'" font-size="31.7927">Apollo Labs </text>
<g>
	<path fill="#414042" d="M364.583,184.995l-17.891-3.561c-1.921-0.38,4.379-8.261,5.383-11.1c0.65-1.847,2.758-3.067,4.675-2.686
		l3.816,0.761c1.922,0.382,3.397,2.314,3.293,4.27C363.701,175.686,366.503,185.378,364.583,184.995z"/>
	<path fill="#1A1A1A" d="M381.243,132.567c1.855-7.217,3.739-15.617,5.675-25.265c6.605-32.97-2.208-62.991-2.293-63.286
		l-0.546-1.828l-1.211,1.472c-0.193,0.245-19.852,24.557-26.459,57.528c-2.015,10.05-3.548,18.496-4.646,25.766l-18.157,22.408
		l-5.589,27.873l23.853-26.061l-0.002-0.395c-0.001-7.555,0.213-10.174,1.927-23.361l0.292-2.231
		c1.065-6.754,2.484-14.515,4.304-23.599c5.193-25.925,17.617-45.06,22.898-52.378c-0.66,5.841-2.145,17.701-4.427,31.834
		c-6.029-1.061-11.832,2.875-13.031,8.911c-1.22,6.118,2.754,12.066,8.873,13.283c0.059,0.011,0.114,0.016,0.175,0.026
		c-4.56,22.925-10.86,46.788-18.843,59.434l-0.603,0.806l0.812,0.607c0.622,0.47,1.687,0.771,2.164,0.866
		c0.104,0.02,0.354,0.078,0.699,0.156c1.474,0.327,2.675,0.586,3.66,0.78c3.637,0.732,4.336,0.665,4.772,0.491
		c2.433-0.968,4.837-3.833,7.248-8.71l11.062,30.726l5.586-27.87L381.243,132.567z M375.184,96.398l-1.935,4.09l-0.222-4.521
		l-3.722,2.576l2.068-4.025l-4.51,0.369l3.803-2.452l-4.09-1.934l4.519-0.222l-2.572-3.719l4.024,2.068l-0.371-4.511l2.452,3.806
		l1.936-4.093l0.218,4.521l3.726-2.576l-2.07,4.024l4.511-0.369l-3.807,2.449l4.095,1.936l-4.522,0.221l2.577,3.721l-4.025-2.068
		l0.373,4.511L375.184,96.398z"/>
	<path fill="#1A1A1A" d="M374.905,88.915c-1.791,0-3.245,1.453-3.245,3.246s1.454,3.247,3.245,3.247
		c1.794,0,3.249-1.453,3.249-3.247C378.154,90.368,376.699,88.915,374.905,88.915z M374.905,94.706c-1.404,0-2.544-1.14-2.544-2.545
		c0-1.405,1.14-2.543,2.544-2.543c1.405,0,2.545,1.139,2.545,2.543C377.45,93.566,376.312,94.706,374.905,94.706z"/>
</g>
<text transform="matrix(1 0 0 1 148.7754 342.8418)" fill="#F26522" font-family="'MyriadPro-BoldCondIt'" font-size="25.8384">Superior fuel for a superior workout</text>
<g enable-background="new    ">
	<path fill="#414042" d="M305.865,580.249c0.454,0.269,1.176,0.475,1.918,0.475c1.176,0.041,2.002-0.681,2.002-1.774
		c0-0.929-0.516-1.465-1.383-2.331c-1.094-1.031-1.65-2.146-1.65-3.362c0-2.579,1.816-4.395,4.539-4.395
		c1.072,0,1.754,0.227,2.084,0.434l-0.701,2.228c-0.414-0.227-0.867-0.371-1.507-0.371c-1.093,0-1.836,0.701-1.856,1.774
		c0,0.66,0.268,1.176,1.383,2.166c1.134,1.011,1.67,2.228,1.67,3.342c0,2.888-1.918,4.58-4.559,4.58c-1.382,0-2.27-0.31-2.6-0.516
		L305.865,580.249z"/>
	<path fill="#414042" d="M322.121,572.802l-1.279,6.787c-0.247,1.196-0.392,2.331-0.516,3.301h-2.229l0.084-1.341l-0.042-0.041
		c-0.743,1.072-1.671,1.547-2.62,1.547c-1.341,0-1.918-1.011-1.918-2.331c0-0.64,0.103-1.32,0.247-2.084l1.093-5.838h2.58
		l-1.094,5.735c-0.104,0.618-0.186,1.134-0.186,1.608c0,0.495,0.186,0.805,0.619,0.805c0.66,0,1.32-0.866,1.608-2.311l1.073-5.838
		H322.121z"/>
	<path fill="#414042" d="M321.399,586.851l2.042-10.728c0.227-1.196,0.393-2.331,0.537-3.321h2.207l-0.165,1.465h0.041
		c0.619-1.011,1.589-1.63,2.517-1.63c1.816,0,2.166,1.567,2.166,3.115c0,3.383-1.814,7.303-4.766,7.303
		c-0.453,0-0.948-0.083-1.237-0.247h-0.062l-0.742,4.043H321.399z M325.051,580.889c0.207,0.145,0.412,0.247,0.723,0.247
		c1.567,0,2.33-3.424,2.33-4.93c0-0.682-0.062-1.383-0.742-1.383c-0.66,0-1.361,1.053-1.609,2.27L325.051,580.889z"/>
	<path fill="#414042" d="M337.861,582.456c-0.887,0.372-1.754,0.558-2.908,0.558c-2.477,0-3.425-1.63-3.425-3.796
		c0-2.93,1.63-6.581,4.849-6.581c1.836,0,2.66,1.361,2.682,2.743c0,2.765-2.229,3.797-5.034,3.714c-0.021,0.289,0,0.805,0.228,1.176
		c0.247,0.413,0.701,0.722,1.402,0.722c0.846,0,1.443-0.206,2.043-0.494L337.861,582.456z M336.047,574.699
		c-0.785,0-1.486,1.011-1.775,2.455c1.362,0.062,2.496-0.475,2.496-1.526C336.768,575.05,336.541,574.699,336.047,574.699z"/>
	<path fill="#414042" d="M339.018,582.89l1.299-6.85c0.227-1.154,0.371-2.311,0.516-3.238h2.207
		c-0.041,0.516-0.082,1.052-0.144,1.671h0.062c0.742-1.279,1.65-1.836,2.496-1.836c0.166,0,0.289,0,0.413,0.041l-0.475,2.579
		c-0.103,0-0.288-0.021-0.433-0.021c-1.115,0-2.166,1.278-2.477,2.991l-0.887,4.662H339.018z"/>
	<path fill="#414042" d="M345.082,582.89l1.939-10.088h2.578l-1.939,10.088H345.082z M347.496,570.223
		c0-0.742,0.535-1.588,1.443-1.588c0.846,0,1.238,0.64,1.217,1.341c-0.02,1.031-0.721,1.609-1.484,1.609
		C347.846,571.585,347.475,570.986,347.496,570.223z"/>
	<path fill="#414042" d="M357.852,576.164c0,3.177-1.691,6.891-4.766,6.891c-2.537,0-3.094-2.001-3.094-3.486
		c0-3.404,1.877-6.932,4.93-6.932C357.48,572.637,357.852,574.762,357.852,576.164z M352.55,579.444c0,0.743,0.021,1.65,0.825,1.65
		c1.238,0,1.939-3.425,1.939-5.24c0-0.681-0.186-1.258-0.805-1.258C353.396,574.597,352.529,577.712,352.55,579.444z"/>
	<path fill="#414042" d="M358.182,582.89l1.299-6.85c0.228-1.154,0.372-2.311,0.517-3.238h2.208
		c-0.042,0.516-0.084,1.052-0.145,1.671h0.061c0.744-1.279,1.65-1.836,2.497-1.836c0.165,0,0.288,0,0.413,0.041l-0.475,2.579
		c-0.104,0-0.289-0.021-0.434-0.021c-1.114,0-2.166,1.278-2.476,2.991l-0.888,4.662H358.182z"/>
	<path fill="#414042" d="M367.547,582.89l1.59-8.272h-1.342l0.33-1.815h1.361l0.083-0.413c0.228-1.196,0.681-2.228,1.526-3.012
		c0.619-0.577,1.527-0.929,2.559-0.929c0.66,0,1.154,0.104,1.465,0.207l-0.578,1.98c-0.248-0.083-0.475-0.124-0.805-0.124
		c-0.928,0-1.465,0.97-1.629,1.856l-0.084,0.434h1.961l-0.352,1.815h-1.918l-1.588,8.272H367.547z"/>
	<path fill="#414042" d="M381.988,572.802l-1.279,6.787c-0.247,1.196-0.392,2.331-0.516,3.301h-2.229l0.084-1.341l-0.042-0.041
		c-0.743,1.072-1.671,1.547-2.62,1.547c-1.341,0-1.918-1.011-1.918-2.331c0-0.64,0.103-1.32,0.247-2.084l1.093-5.838h2.58
		l-1.094,5.735c-0.104,0.618-0.186,1.134-0.186,1.608c0,0.495,0.186,0.805,0.619,0.805c0.66,0,1.32-0.866,1.608-2.311l1.073-5.838
		H381.988z"/>
	<path fill="#414042" d="M388.775,582.456c-0.887,0.372-1.754,0.558-2.908,0.558c-2.477,0-3.425-1.63-3.425-3.796
		c0-2.93,1.63-6.581,4.849-6.581c1.836,0,2.66,1.361,2.682,2.743c0,2.765-2.229,3.797-5.034,3.714c-0.021,0.289,0,0.805,0.228,1.176
		c0.247,0.413,0.701,0.722,1.402,0.722c0.846,0,1.443-0.206,2.043-0.494L388.775,582.456z M386.961,574.699
		c-0.785,0-1.486,1.011-1.775,2.455c1.362,0.062,2.496-0.475,2.496-1.526C387.682,575.05,387.455,574.699,386.961,574.699z"/>
	<path fill="#414042" d="M389.931,582.89l2.724-14.275h2.578l-2.723,14.275H389.931z"/>
	<path fill="#414042" d="M397.708,582.89l1.589-8.272h-1.342l0.33-1.815h1.362l0.083-0.413c0.227-1.196,0.68-2.228,1.525-3.012
		c0.619-0.577,1.527-0.929,2.559-0.929c0.66,0,1.155,0.104,1.465,0.207l-0.578,1.98c-0.247-0.083-0.475-0.124-0.805-0.124
		c-0.928,0-1.465,0.97-1.629,1.856l-0.082,0.434h1.959l-0.351,1.815h-1.919l-1.588,8.272H397.708z"/>
	<path fill="#414042" d="M411.283,576.164c0,3.177-1.691,6.891-4.766,6.891c-2.537,0-3.095-2.001-3.095-3.486
		c0-3.404,1.878-6.932,4.931-6.932C410.912,572.637,411.283,574.762,411.283,576.164z M405.98,579.444
		c0,0.743,0.021,1.65,0.826,1.65c1.237,0,1.938-3.425,1.938-5.24c0-0.681-0.186-1.258-0.804-1.258
		C406.826,574.597,405.961,577.712,405.98,579.444z"/>
	<path fill="#414042" d="M411.613,582.89l1.299-6.85c0.227-1.154,0.371-2.311,0.516-3.238h2.207
		c-0.041,0.516-0.082,1.052-0.144,1.671h0.062c0.742-1.279,1.65-1.836,2.496-1.836c0.166,0,0.289,0,0.413,0.041l-0.475,2.579
		c-0.103,0-0.288-0.021-0.433-0.021c-1.115,0-2.166,1.278-2.477,2.991l-0.887,4.662H411.613z"/>
	<path fill="#414042" d="M425.703,582.89c0.021-0.536,0.062-1.094,0.082-1.691h-0.062c-0.805,1.341-1.774,1.856-2.579,1.856
		c-1.465,0-2.187-1.259-2.187-3.032c0-3.054,1.526-7.386,5.858-7.386c1.012,0,2.021,0.165,2.641,0.412l-1.113,5.611
		c-0.248,1.177-0.434,3.136-0.412,4.229H425.703z M426.631,574.617c-0.206-0.041-0.392-0.062-0.536-0.062
		c-1.691,0-2.599,3.362-2.62,4.848c0,0.887,0.124,1.526,0.764,1.526c0.701,0,1.361-1.155,1.732-2.991L426.631,574.617z"/>
	<path fill="#414042" d="M432.696,580.683c0.413,0.227,0.907,0.433,1.63,0.412c0.742-0.021,1.155-0.495,1.155-1.135
		c0-0.557-0.269-0.949-0.97-1.506c-0.866-0.701-1.279-1.588-1.279-2.455c0-1.856,1.444-3.362,3.734-3.362
		c0.887,0,1.527,0.165,1.898,0.371l-0.558,1.878c-0.288-0.166-0.763-0.31-1.196-0.31c-0.825,0-1.342,0.433-1.342,1.113
		c0,0.517,0.289,0.825,0.764,1.218c1.135,0.866,1.506,1.856,1.506,2.641c0,2.228-1.547,3.466-3.857,3.466
		c-0.928,0-1.754-0.269-2.104-0.516L432.696,580.683z"/>
	<path fill="#414042" d="M447.9,572.802l-1.279,6.787c-0.247,1.196-0.392,2.331-0.516,3.301h-2.229l0.084-1.341l-0.042-0.041
		c-0.743,1.072-1.671,1.547-2.62,1.547c-1.341,0-1.918-1.011-1.918-2.331c0-0.64,0.103-1.32,0.247-2.084l1.093-5.838h2.58
		l-1.094,5.735c-0.104,0.618-0.186,1.134-0.186,1.608c0,0.495,0.186,0.805,0.619,0.805c0.66,0,1.32-0.866,1.608-2.311l1.073-5.838
		H447.9z"/>
	<path fill="#414042" d="M447.178,586.851l2.043-10.728c0.227-1.196,0.392-2.331,0.536-3.321h2.208l-0.166,1.465h0.041
		c0.619-1.011,1.59-1.63,2.518-1.63c1.815,0,2.166,1.567,2.166,3.115c0,3.383-1.815,7.303-4.766,7.303
		c-0.453,0-0.949-0.083-1.238-0.247h-0.061l-0.744,4.043H447.178z M450.83,580.889c0.205,0.145,0.412,0.247,0.722,0.247
		c1.567,0,2.331-3.424,2.331-4.93c0-0.682-0.062-1.383-0.742-1.383c-0.66,0-1.361,1.053-1.609,2.27L450.83,580.889z"/>
	<path fill="#414042" d="M463.641,582.456c-0.887,0.372-1.754,0.558-2.908,0.558c-2.477,0-3.425-1.63-3.425-3.796
		c0-2.93,1.63-6.581,4.849-6.581c1.836,0,2.66,1.361,2.682,2.743c0,2.765-2.229,3.797-5.034,3.714c-0.021,0.289,0,0.805,0.228,1.176
		c0.247,0.413,0.701,0.722,1.402,0.722c0.846,0,1.443-0.206,2.043-0.494L463.641,582.456z M461.826,574.699
		c-0.785,0-1.486,1.011-1.775,2.455c1.362,0.062,2.496-0.475,2.496-1.526C462.547,575.05,462.32,574.699,461.826,574.699z"/>
	<path fill="#414042" d="M464.796,582.89l1.3-6.85c0.227-1.154,0.371-2.311,0.516-3.238h2.207c-0.041,0.516-0.082,1.052-0.145,1.671
		h0.062c0.742-1.279,1.65-1.836,2.496-1.836c0.165,0,0.289,0,0.412,0.041l-0.475,2.579c-0.103,0-0.289-0.021-0.433-0.021
		c-1.114,0-2.167,1.278-2.476,2.991l-0.887,4.662H464.796z"/>
	<path fill="#414042" d="M470.861,582.89l1.939-10.088h2.578l-1.939,10.088H470.861z M473.275,570.223
		c0-0.742,0.535-1.588,1.443-1.588c0.846,0,1.238,0.64,1.217,1.341c-0.02,1.031-0.721,1.609-1.484,1.609
		C473.625,571.585,473.254,570.986,473.275,570.223z"/>
	<path fill="#414042" d="M483.631,576.164c0,3.177-1.691,6.891-4.766,6.891c-2.537,0-3.094-2.001-3.094-3.486
		c0-3.404,1.877-6.932,4.93-6.932C483.26,572.637,483.631,574.762,483.631,576.164z M478.329,579.444c0,0.743,0.021,1.65,0.825,1.65
		c1.238,0,1.939-3.425,1.939-5.24c0-0.681-0.186-1.258-0.805-1.258C479.175,574.597,478.309,577.712,478.329,579.444z"/>
	<path fill="#414042" d="M483.961,582.89l1.299-6.85c0.228-1.154,0.372-2.311,0.517-3.238h2.208
		c-0.042,0.516-0.084,1.052-0.145,1.671h0.061c0.744-1.279,1.65-1.836,2.497-1.836c0.165,0,0.288,0,0.413,0.041l-0.475,2.579
		c-0.104,0-0.289-0.021-0.434-0.021c-1.114,0-2.166,1.278-2.476,2.991l-0.888,4.662H483.961z"/>
	<path fill="#414042" d="M496.689,572.802l-0.248,4.497c-0.104,1.361-0.145,2.042-0.289,3.074h0.062
		c0.289-1.011,0.536-1.713,0.99-2.868l1.959-4.703h1.98l0.041,4.642c0,1.361-0.02,1.877-0.144,2.93h0.062
		c0.248-1.011,0.475-1.754,0.929-3.156l1.548-4.415h2.516l-4.436,10.088h-2.248l-0.145-3.692c-0.021-0.867,0.041-1.919,0.145-3.136
		h-0.062c-0.35,1.217-0.701,2.289-1.051,3.136l-1.568,3.692h-2.27l-0.453-10.088H496.689z"/>
	<path fill="#414042" d="M513.316,576.164c0,3.177-1.691,6.891-4.766,6.891c-2.537,0-3.094-2.001-3.094-3.486
		c0-3.404,1.877-6.932,4.93-6.932C512.945,572.637,513.316,574.762,513.316,576.164z M508.016,579.444c0,0.743,0.02,1.65,0.824,1.65
		c1.238,0,1.939-3.425,1.939-5.24c0-0.681-0.186-1.258-0.805-1.258C508.861,574.597,507.994,577.712,508.016,579.444z"/>
	<path fill="#414042" d="M513.646,582.89l1.301-6.85c0.227-1.154,0.371-2.311,0.516-3.238h2.207
		c-0.041,0.516-0.082,1.052-0.145,1.671h0.062c0.742-1.279,1.65-1.836,2.496-1.836c0.164,0,0.288,0,0.412,0.041l-0.475,2.579
		c-0.104,0-0.289-0.021-0.434-0.021c-1.113,0-2.166,1.278-2.475,2.991l-0.888,4.662H513.646z"/>
	<path fill="#414042" d="M519.732,582.89l2.703-14.275h2.516l-1.588,8.354h0.041c0.248-0.412,0.496-0.825,0.723-1.196l1.856-2.971
		h2.765l-3.239,4.456l1.526,5.632h-2.641l-0.908-4.353l-0.598,0.866l-0.66,3.486H519.732z"/>
	<path fill="#414042" d="M535.969,576.164c0,3.177-1.691,6.891-4.766,6.891c-2.537,0-3.094-2.001-3.094-3.486
		c0-3.404,1.877-6.932,4.93-6.932C535.598,572.637,535.969,574.762,535.969,576.164z M530.667,579.444
		c0,0.743,0.021,1.65,0.825,1.65c1.238,0,1.939-3.425,1.939-5.24c0-0.681-0.186-1.258-0.805-1.258
		C531.513,574.597,530.646,577.712,530.667,579.444z"/>
	<path fill="#414042" d="M545.334,572.802l-1.278,6.787c-0.247,1.196-0.392,2.331-0.517,3.301h-2.227l0.082-1.341l-0.041-0.041
		c-0.743,1.072-1.672,1.547-2.621,1.547c-1.34,0-1.918-1.011-1.918-2.331c0-0.64,0.104-1.32,0.248-2.084l1.093-5.838h2.579
		l-1.094,5.735c-0.104,0.618-0.186,1.134-0.186,1.608c0,0.495,0.186,0.805,0.619,0.805c0.66,0,1.32-0.866,1.609-2.311l1.072-5.838
		H545.334z"/>
	<path fill="#414042" d="M550.574,570.078l-0.516,2.724h1.898l-0.33,1.815h-1.92l-0.887,4.683c-0.062,0.351-0.082,0.66-0.082,0.846
		c0,0.619,0.309,0.846,0.783,0.846c0.186,0,0.455,0,0.702-0.041l-0.31,1.939c-0.475,0.124-1.053,0.165-1.547,0.165
		c-1.547,0-2.311-0.866-2.311-2.228c0-0.454,0.082-1.012,0.186-1.507l0.887-4.703h-1.176l0.351-1.815h1.177l0.412-2.084
		L550.574,570.078z"/>
</g>
<g enable-background="new    ">
	<path d="M87.687,531.201l-7.696,40.212h-7.458l7.696-40.212H87.687z"/>
	<path d="M109.342,570.279c-2.208,0.836-4.833,1.492-7.935,1.492c-4.773,0-7.696-1.552-9.784-4.177
		c-1.969-2.446-2.983-6.384-2.983-10.023c0-8.293,2.745-16.049,7.577-21.18c3.401-3.58,8.114-5.549,13.066-5.549
		c3.341,0,5.19,0.597,6.384,1.074l-2.386,6.562c-0.955-0.417-2.685-0.835-4.355-0.835c-2.745,0-4.833,0.895-6.682,2.685
		c-3.281,3.281-5.728,9.665-5.728,17.123c0,5.012,1.611,7.875,4.833,7.875c0.835,0,1.492-0.06,2.148-0.238l1.85-9.964h-3.64
		l1.253-6.025h10.381L109.342,570.279z"/>
	<path d="M115.126,571.413l7.696-40.212h6.801l3.103,15.989c1.014,5.31,1.67,9.128,1.969,12.47h0.12
		c0.537-4.415,1.252-11.336,2.505-18.019l1.969-10.44h6.443l-7.696,40.212h-6.384l-3.222-14.976
		c-1.252-5.607-1.611-8.353-2.028-13.364h-0.119c-0.537,4.058-1.432,10.68-2.745,17.66l-2.028,10.68H115.126z"/>
</g>
<g>
	<path d="M160.403,529.581c0.393,1.142-3.342,27.321-5.997,36.068c-0.415,1.366-2.27,5.243-2.27,5.243l-0.057-5.425l-3.712,9.937
		l1.828-16.959l-3.151,7.766c0,0-0.087-2.898,0-3.857c0.788-8.662,6.115-33.331,6.904-34.1
		C154.686,527.535,160.131,528.794,160.403,529.581z"/>
</g>
<g enable-background="new    ">
	<path d="M171.148,538.241h-6.98l1.372-7.04h21.418l-1.372,7.04h-6.98l-6.324,33.172h-7.458L171.148,538.241z"/>
	<path d="M203.065,553.634h-8.83l-2.208,11.157h10.143l-1.312,6.622h-17.541l7.696-40.212h16.825l-1.312,6.562h-9.248l-1.969,9.546
		h9.009L203.065,553.634z"/>
</g>
<text transform="matrix(1 0 0 1 81.2856 524.6592)" font-family="'MyriadPro-Cond'" font-size="11.8254">Apollo Labs </text>
<g>
	<path d="M161.552,524.97l-6.654-1.323c-0.714-0.142,1.628-3.072,2.002-4.13c0.242-0.687,1.026-1.141,1.739-0.999l1.419,0.283
		c0.715,0.143,1.264,0.86,1.225,1.589C161.224,521.508,162.266,525.112,161.552,524.97z"/>
	<path d="M167.749,505.469c0.691-2.684,1.391-5.809,2.111-9.396c2.457-12.265-0.821-23.431-0.853-23.539l-0.203-0.681l-0.45,0.549
		c-0.072,0.091-7.384,9.134-9.842,21.396c-0.749,3.738-1.32,6.88-1.728,9.583l-6.754,8.335l-2.079,10.368l8.872-9.694v-0.146
		c0-2.811,0.079-3.784,0.716-8.689l0.109-0.829c0.396-2.513,0.924-5.398,1.601-8.777c1.932-9.644,6.553-16.761,8.517-19.482
		c-0.246,2.173-0.797,6.584-1.646,11.841c-2.242-0.395-4.401,1.07-4.847,3.314c-0.454,2.275,1.024,4.488,3.3,4.939
		c0.021,0.006,0.042,0.007,0.065,0.012c-1.696,8.525-4.04,17.401-7.008,22.104l-0.224,0.302l0.301,0.226
		c0.231,0.175,0.627,0.286,0.805,0.322c0.039,0.007,0.132,0.028,0.26,0.058c0.548,0.122,0.995,0.219,1.362,0.29
		c1.352,0.272,1.613,0.248,1.775,0.184c0.905-0.36,1.799-1.427,2.696-3.239l4.114,11.429l2.078-10.366L167.749,505.469z
		 M165.495,492.017l-0.72,1.521l-0.083-1.682l-1.384,0.958l0.769-1.497l-1.677,0.138l1.414-0.912l-1.521-0.719l1.681-0.084
		l-0.957-1.382l1.497,0.769l-0.138-1.678l0.912,1.416l0.719-1.522l0.081,1.682l1.386-0.958l-0.77,1.496l1.677-0.137l-1.416,0.911
		l1.523,0.72l-1.682,0.082l0.958,1.385l-1.497-0.771l0.139,1.678L165.495,492.017z"/>
	<path d="M165.391,489.232c-0.666,0-1.207,0.54-1.207,1.207c0,0.668,0.541,1.209,1.207,1.209c0.667,0,1.208-0.541,1.208-1.209
		C166.6,489.772,166.059,489.232,165.391,489.232z M165.391,491.387c-0.522,0-0.946-0.424-0.946-0.946
		c0-0.521,0.424-0.945,0.946-0.945c0.523,0,0.947,0.424,0.947,0.945C166.338,490.963,165.915,491.387,165.391,491.387z"/>
</g>
<text transform="matrix(1 0 0 1 81.2852 583.6816)" font-family="'MyriadPro-BoldCondIt'" font-size="9.6107">Superior fuel for a superior workout</text>
<g enable-background="new    ">
	<path fill="#F26522" d="M321.276,520.743l-7.696,40.212h-7.458l7.696-40.212H321.276z"/>
	<path fill="#F26522" d="M342.932,559.821c-2.207,0.836-4.832,1.492-7.936,1.492c-4.772,0-7.695-1.552-9.783-4.177
		c-1.97-2.446-2.984-6.384-2.984-10.023c0-8.293,2.745-16.049,7.578-21.18c3.4-3.58,8.113-5.549,13.065-5.549
		c3.341,0,5.19,0.597,6.384,1.074l-2.387,6.562c-0.954-0.417-2.685-0.835-4.355-0.835c-2.744,0-4.832,0.895-6.682,2.685
		c-3.281,3.281-5.728,9.665-5.728,17.123c0,5.012,1.61,7.875,4.833,7.875c0.835,0,1.491-0.06,2.147-0.238l1.85-9.964h-3.64
		l1.253-6.025h10.382L342.932,559.821z"/>
	<path fill="#F26522" d="M348.716,560.955l7.696-40.212h6.801l3.104,15.989c1.014,5.31,1.67,9.128,1.969,12.47h0.119
		c0.537-4.415,1.252-11.336,2.506-18.019l1.969-10.44h6.443l-7.696,40.212h-6.384l-3.223-14.976
		c-1.252-5.607-1.61-8.353-2.027-13.364h-0.119c-0.537,4.058-1.433,10.68-2.745,17.66l-2.028,10.68H348.716z"/>
	<path fill="#F26522" d="M393.876,520.743l-7.696,40.212h-7.457l7.695-40.212H393.876z"/>
	<path fill="#F26522" d="M403.241,527.783h-6.98l1.372-7.04h21.418l-1.371,7.04h-6.98l-6.324,33.172h-7.458L403.241,527.783z"/>
	<path fill="#F26522" d="M435.158,543.176h-8.83l-2.208,11.157h10.143l-1.312,6.622h-17.54l7.695-40.212h16.825l-1.312,6.562h-9.248
		l-1.969,9.546h9.009L435.158,543.176z"/>
</g>
<g>
	<path fill="#414042" d="M450.265,547.18l-0.121-12.869c-0.018-1.382,6.335,1.831,8.44,2.114c1.368,0.187,2.515,1.466,2.529,2.843
		l0.023,2.745c0.016,1.382-1.107,2.681-2.475,2.893C456.562,545.225,450.276,548.56,450.265,547.18z"/>
	<path fill="#414042" d="M488.87,551.119c5.25,0.242,11.321,0.332,18.263,0.278c23.719-0.195,43.175-10.612,43.367-10.712
		l1.186-0.641l-1.191-0.626c-0.196-0.097-19.819-10.166-43.538-9.974c-7.23,0.062-13.285,0.219-18.461,0.51l-18.095-9.307
		l-20.052,0.16l21.438,12.714l0.27-0.061c5.216-1.091,7.058-1.319,16.411-2.039l1.58-0.12c4.821-0.238,10.383-0.378,16.92-0.432
		c18.648-0.154,33.653,5.665,39.468,8.256c-4.127,0.386-12.53,1.072-22.616,1.533c-0.143-4.314-3.695-7.754-8.033-7.708
		c-4.403,0.037-7.938,3.636-7.892,8.04c-0.004,0.041,0.006,0.081,0.003,0.126c-16.485,0.155-33.873-0.752-43.756-4.439l-0.645-0.3
		l-0.302,0.646c-0.235,0.498-0.289,1.274-0.285,1.62c0.002,0.073-0.004,0.258-0.008,0.506c-0.016,1.064-0.021,1.932-0.01,2.643
		c0.02,2.615,0.164,3.09,0.347,3.363c1.021,1.541,3.347,2.789,7.062,3.751l-19.623,12.068l20.054-0.165L488.87,551.119z
		 M512.969,541.724l-3.104-0.75l3.09-0.804l-2.315-2.2l3.078,0.853l-0.905-3.062l2.24,2.271l0.745-3.104l0.808,3.087l2.192-2.311
		l-0.847,3.078l3.064-0.908l-2.275,2.241l3.104,0.744l-3.09,0.803l2.315,2.202l-3.078-0.852l0.907,3.061l-2.238-2.272l-0.751,3.106
		l-0.804-3.092l-2.196,2.314l0.849-3.076l-3.058,0.909L512.969,541.724z"/>
	<path fill="#414042" d="M518.097,540.449c-0.259-1.236-1.469-2.033-2.707-1.773c-1.24,0.259-2.036,1.475-1.779,2.711
		c0.26,1.237,1.477,2.031,2.717,1.774C517.562,542.901,518.358,541.688,518.097,540.449z M514.097,541.283
		c-0.202-0.969,0.42-1.923,1.394-2.125c0.967-0.201,1.923,0.423,2.12,1.392c0.204,0.973-0.418,1.921-1.388,2.122
		C515.252,542.878,514.304,542.256,514.097,541.283z"/>
</g>
</svg>
